<svg id="Reference_Images" data-name="Reference Images" xmlns="http://www.w3.org/2000/svg" viewBox="0 0 336 336"><defs><style>.cls-1{fill:#efefef;}.cls-2{fill:#efe2ab;}.cls-3{fill:#a4dde0;}.cls-4{fill:#9fce9f;}.cls-5{fill:none;stroke:#000;stroke-linecap:round;stroke-miterlimit:10;stroke-width:0.5px;}</style></defs><title>Diagram-1.4</title><rect class="cls-1" x="-1.608" y="-1.452" width="338.846" height="338.962"/><circle class="cls-2" cx="120.183" cy="195.626" r="106.745"/><circle class="cls-3" cx="215.448" cy="195.626" r="106.745"/><path class="cls-4" d="M226.927,195.859a106.74,106.74,0,0,0-59.112-95.779,106.774,106.774,0,0,0,0,191.091A106.738,106.738,0,0,0,226.927,195.859Z"/><path d="M152.081,182.434a1.754,1.754,0,0,1,.463.049.968.968,0,0,1,.211.071v1.012a.75.75,0,0,0-.163-.048,1.716,1.716,0,0,0-.331-.024,1.235,1.235,0,0,0-.307.042.851.851,0,0,0-.3.15.775.775,0,0,0-.222.295,1.184,1.184,0,0,0-.085.488v.927h3.83v5.794h-1.121v-4.77h-2.709v4.77h-1.168v-4.77h-1.072V185.4h1.072v-.975a2.276,2.276,0,0,1,.15-.855,1.835,1.835,0,0,1,.41-.627,1.682,1.682,0,0,1,.6-.379A2.135,2.135,0,0,1,152.081,182.434Zm1.721.746a.794.794,0,0,1,.236-.584.78.78,0,0,1,.572-.234.8.8,0,0,1,.818.818.781.781,0,0,1-.234.573.793.793,0,0,1-.584.235.8.8,0,0,1-.808-.808Z"/><path d="M158.234,191.19H157.1V185.4h1.109v.831a1.825,1.825,0,0,1,.795-.77,2.267,2.267,0,0,1,.987-.229,2.233,2.233,0,0,1,.909.174,1.82,1.82,0,0,1,.651.482,2.02,2.02,0,0,1,.385.729,3.138,3.138,0,0,1,.127.9v3.674h-1.132v-3.481a2.329,2.329,0,0,0-.067-.566,1.187,1.187,0,0,0-.228-.464,1.122,1.122,0,0,0-.422-.313,1.569,1.569,0,0,0-.632-.114,1.308,1.308,0,0,0-.59.126,1.2,1.2,0,0,0-.422.343,1.513,1.513,0,0,0-.253.506,2.2,2.2,0,0,0-.085.615Z"/><path d="M167.929,190.31a1.868,1.868,0,0,1-.655.729,1.99,1.99,0,0,1-1.139.306,2.677,2.677,0,0,1-1.144-.234,2.506,2.506,0,0,1-.861-.651,2.941,2.941,0,0,1-.548-.975,3.681,3.681,0,0,1-.192-1.21,3.352,3.352,0,0,1,.2-1.163,3.021,3.021,0,0,1,.559-.963,2.731,2.731,0,0,1,.868-.663,2.537,2.537,0,0,1,1.119-.246,2.493,2.493,0,0,1,.681.084,1.988,1.988,0,0,1,.512.223,1.563,1.563,0,0,1,.361.313,1.351,1.351,0,0,1,.217.356V182.47h1.12v7.647q0,.423.024.711c.015.193.028.314.036.362h-1.1a2.05,2.05,0,0,1-.042-.308c-.013-.14-.019-.3-.019-.476Zm-3.384-2.035a2.822,2.822,0,0,0,.115.825,1.986,1.986,0,0,0,.331.656,1.555,1.555,0,0,0,.53.434,1.6,1.6,0,0,0,.723.157,1.5,1.5,0,0,0,.7-.163,1.6,1.6,0,0,0,.53-.44,1.965,1.965,0,0,0,.331-.663,2.908,2.908,0,0,0,.115-.831,2.28,2.28,0,0,0-.439-1.456,1.476,1.476,0,0,0-1.224-.555,1.634,1.634,0,0,0-.7.151,1.542,1.542,0,0,0-.541.422,1.933,1.933,0,0,0-.344.643A2.642,2.642,0,0,0,164.545,188.275Z"/><path d="M170.7,183.205a.8.8,0,0,1,.234-.584.779.779,0,0,1,.573-.235.8.8,0,0,1,.819.819.775.775,0,0,1-.235.571.792.792,0,0,1-.584.235.8.8,0,0,1-.807-.806Zm.253,7.985V185.4h1.12v5.794Z"/><path d="M175.131,191.19H174V185.4h1.108v.831a1.83,1.83,0,0,1,.795-.77,2.27,2.27,0,0,1,.987-.229,2.238,2.238,0,0,1,.91.174,1.828,1.828,0,0,1,.651.482,2.035,2.035,0,0,1,.385.729,3.138,3.138,0,0,1,.126.9v3.674h-1.132v-3.481a2.281,2.281,0,0,0-.067-.566,1.174,1.174,0,0,0-.228-.464,1.126,1.126,0,0,0-.421-.313,1.576,1.576,0,0,0-.632-.114,1.3,1.3,0,0,0-.59.126,1.214,1.214,0,0,0-.423.343,1.513,1.513,0,0,0-.253.506,2.2,2.2,0,0,0-.084.615Z"/><path d="M181.442,191.249a1.564,1.564,0,0,0,.488,1.019,1.529,1.529,0,0,0,1.09.4,1.731,1.731,0,0,0,1.342-.469,2.03,2.03,0,0,0,.428-1.409v-.831a1.723,1.723,0,0,1-.662.675,2.108,2.108,0,0,1-1.108.276,2.631,2.631,0,0,1-1.066-.211,2.527,2.527,0,0,1-1.4-1.463,3.12,3.12,0,0,1-.2-1.132,3.086,3.086,0,0,1,.193-1.1,2.706,2.706,0,0,1,.542-.892,2.555,2.555,0,0,1,1.927-.824,2.345,2.345,0,0,1,1.12.24,1.536,1.536,0,0,1,.662.675V185.4h1.121v5.359a4.039,4.039,0,0,1-.145,1.078,2.376,2.376,0,0,1-.489.928,2.463,2.463,0,0,1-.9.65,3.368,3.368,0,0,1-1.373.247,3.058,3.058,0,0,1-1.006-.162,2.7,2.7,0,0,1-.818-.452,2.412,2.412,0,0,1-.579-.68,2.158,2.158,0,0,1-.271-.862Zm1.746-1.288a1.536,1.536,0,0,0,1.193-.506,2.214,2.214,0,0,0,0-2.7,1.533,1.533,0,0,0-1.193-.506,1.557,1.557,0,0,0-1.216.506,2.235,2.235,0,0,0-.006,2.7A1.566,1.566,0,0,0,183.188,189.961Z"/><path d="M145.005,203.775a1.249,1.249,0,0,0,.4.77,1.348,1.348,0,0,0,.952.314,1.06,1.06,0,0,0,.735-.23.706.706,0,0,0,.253-.542.64.64,0,0,0-.193-.469,1.131,1.131,0,0,0-.554-.277l-.988-.217a1.875,1.875,0,0,1-1.065-.578,1.536,1.536,0,0,1-.38-1.048,1.575,1.575,0,0,1,.163-.7,1.964,1.964,0,0,1,.439-.584,2.036,2.036,0,0,1,.657-.4,2.235,2.235,0,0,1,.8-.145,2.587,2.587,0,0,1,.993.169,2.11,2.11,0,0,1,.656.415,1.82,1.82,0,0,1,.379.513,2.516,2.516,0,0,1,.176.458l-1,.372a2.719,2.719,0,0,0-.084-.276.992.992,0,0,0-.193-.32,1.112,1.112,0,0,0-.362-.259,1.318,1.318,0,0,0-.565-.108,1.011,1.011,0,0,0-.7.235.7.7,0,0,0-.265.536q0,.553.663.7l.939.2a2.148,2.148,0,0,1,1.2.62,1.652,1.652,0,0,1,.271,1.729,1.855,1.855,0,0,1-.391.577,1.891,1.891,0,0,1-.657.428,2.479,2.479,0,0,1-.939.163,2.838,2.838,0,0,1-1.03-.168,2.354,2.354,0,0,1-.71-.423,1.87,1.87,0,0,1-.434-.548,1.773,1.773,0,0,1-.187-.548Z"/><path d="M152.387,199.667a2.984,2.984,0,0,1,1.193.235,2.925,2.925,0,0,1,.939.644,2.869,2.869,0,0,1,.614.971,3.343,3.343,0,0,1,.217,1.222,3.4,3.4,0,0,1-.217,1.228,2.852,2.852,0,0,1-.614.976,2.925,2.925,0,0,1-.939.644,3.143,3.143,0,0,1-2.385,0,2.915,2.915,0,0,1-.939-.644,2.855,2.855,0,0,1-.615-.976,3.416,3.416,0,0,1-.217-1.228,3.364,3.364,0,0,1,.217-1.222,2.872,2.872,0,0,1,.615-.971,2.915,2.915,0,0,1,.939-.644A2.976,2.976,0,0,1,152.387,199.667Zm0,5.143a1.792,1.792,0,0,0,.687-.133,1.649,1.649,0,0,0,.578-.4,1.892,1.892,0,0,0,.4-.65,2.515,2.515,0,0,0,.145-.891,2.465,2.465,0,0,0-.145-.885,1.908,1.908,0,0,0-.4-.645,1.649,1.649,0,0,0-.578-.4,1.851,1.851,0,0,0-1.373,0,1.658,1.658,0,0,0-.578.4,1.91,1.91,0,0,0-.4.645,2.488,2.488,0,0,0-.144.885,2.538,2.538,0,0,0,.144.891,1.894,1.894,0,0,0,.4.65,1.658,1.658,0,0,0,.578.4A1.787,1.787,0,0,0,152.387,204.81Z"/><path d="M156.795,205.641v-8.719h1.132v8.719Z"/><path d="M163.612,204.943a1.453,1.453,0,0,1-.723.668,2.431,2.431,0,0,1-.987.211,2.213,2.213,0,0,1-.91-.181,1.953,1.953,0,0,1-.68-.494,2.221,2.221,0,0,1-.428-.734,2.716,2.716,0,0,1-.15-.916v-3.648h1.132v3.48a2.176,2.176,0,0,0,.072.572,1.35,1.35,0,0,0,.229.476,1.11,1.11,0,0,0,.4.325,1.38,1.38,0,0,0,.607.12,1.271,1.271,0,0,0,1.03-.409,1.613,1.613,0,0,0,.343-1.072v-3.492h1.132v4.721q0,.348.019.632c.012.188.025.335.042.439H163.66a1.735,1.735,0,0,1-.036-.307C163.616,205.194,163.612,205.063,163.612,204.943Z"/><path d="M168.128,199.849h1.253v1.023h-1.253v3.011a.854.854,0,0,0,.181.595.812.812,0,0,0,.626.2c.072,0,.152,0,.241-.011a.9.9,0,0,0,.205-.037v.964c-.049.016-.141.038-.278.066a2.475,2.475,0,0,1-.493.043,1.608,1.608,0,0,1-1.18-.429,1.634,1.634,0,0,1-.434-1.222v-3.179h-1.108v-1.023h.312a.843.843,0,0,0,.682-.253.968.968,0,0,0,.21-.639v-.939h1.036Z"/><path d="M170.632,197.656a.794.794,0,0,1,.236-.584.779.779,0,0,1,.572-.234.8.8,0,0,1,.818.818.777.777,0,0,1-.234.572.794.794,0,0,1-.584.236.806.806,0,0,1-.808-.808Zm.253,7.985v-5.792h1.12v5.792Z"/><path d="M176.413,199.667a2.984,2.984,0,0,1,1.193.235,2.936,2.936,0,0,1,.939.644,2.885,2.885,0,0,1,.614.971,3.364,3.364,0,0,1,.217,1.222,3.416,3.416,0,0,1-.217,1.228,2.868,2.868,0,0,1-.614.976,2.936,2.936,0,0,1-.939.644,3.143,3.143,0,0,1-2.385,0,2.919,2.919,0,0,1-.94-.644,2.868,2.868,0,0,1-.614-.976,3.416,3.416,0,0,1-.217-1.228,3.364,3.364,0,0,1,.217-1.222,2.885,2.885,0,0,1,.614-.971,2.919,2.919,0,0,1,.94-.644A2.976,2.976,0,0,1,176.413,199.667Zm0,5.143a1.8,1.8,0,0,0,.687-.133,1.636,1.636,0,0,0,.577-.4,1.879,1.879,0,0,0,.4-.65,2.538,2.538,0,0,0,.144-.891,2.488,2.488,0,0,0-.144-.885,1.894,1.894,0,0,0-.4-.645,1.636,1.636,0,0,0-.577-.4,1.851,1.851,0,0,0-1.373,0,1.64,1.64,0,0,0-.578.4,1.91,1.91,0,0,0-.4.645,2.488,2.488,0,0,0-.144.885,2.538,2.538,0,0,0,.144.891,1.894,1.894,0,0,0,.4.65,1.64,1.64,0,0,0,.578.4A1.784,1.784,0,0,0,176.413,204.81Z"/><path d="M181.952,205.641H180.82v-5.792h1.109v.831a1.83,1.83,0,0,1,.795-.772,2.276,2.276,0,0,1,.987-.228,2.217,2.217,0,0,1,.909.174,1.808,1.808,0,0,1,.651.482,2.011,2.011,0,0,1,.385.729,3.136,3.136,0,0,1,.126.9v3.674H184.65v-3.48a2.344,2.344,0,0,0-.066-.567,1.189,1.189,0,0,0-.229-.464,1.109,1.109,0,0,0-.421-.312,1.552,1.552,0,0,0-.632-.115,1.289,1.289,0,0,0-.59.127,1.214,1.214,0,0,0-.423.343,1.525,1.525,0,0,0-.252.5,2.2,2.2,0,0,0-.085.615Z"/><path d="M188.071,203.775a1.239,1.239,0,0,0,.4.77,1.346,1.346,0,0,0,.952.314,1.06,1.06,0,0,0,.735-.23.708.708,0,0,0,.252-.542.636.636,0,0,0-.193-.469,1.123,1.123,0,0,0-.553-.277l-.988-.217a1.878,1.878,0,0,1-1.066-.578,1.535,1.535,0,0,1-.379-1.048,1.575,1.575,0,0,1,.163-.7,1.964,1.964,0,0,1,.439-.584,2.042,2.042,0,0,1,.656-.4,2.239,2.239,0,0,1,.8-.145,2.6,2.6,0,0,1,.994.169,2.11,2.11,0,0,1,.656.415,1.84,1.84,0,0,1,.379.513,2.5,2.5,0,0,1,.175.458l-1,.372a2.523,2.523,0,0,0-.085-.276.975.975,0,0,0-.193-.32,1.107,1.107,0,0,0-.361-.259,1.32,1.32,0,0,0-.566-.108,1.014,1.014,0,0,0-.7.235.7.7,0,0,0-.264.536q0,.553.662.7l.939.2a2.155,2.155,0,0,1,1.2.62,1.648,1.648,0,0,1,.27,1.729,1.838,1.838,0,0,1-.391.577,1.887,1.887,0,0,1-.656.428,2.483,2.483,0,0,1-.939.163,2.838,2.838,0,0,1-1.03-.168,2.347,2.347,0,0,1-.711-.423,1.883,1.883,0,0,1-.433-.548,1.747,1.747,0,0,1-.187-.548Z"/><path d="M44.192,183.867v-5.793h1.084v.771a1.7,1.7,0,0,1,.764-.71,2.316,2.316,0,0,1,.994-.229,2.054,2.054,0,0,1,1.018.265,1.657,1.657,0,0,1,.717.83,1.932,1.932,0,0,1,.866-.86,2.569,2.569,0,0,1,1.072-.235,2.128,2.128,0,0,1,.735.132,1.849,1.849,0,0,1,.645.4,1.93,1.93,0,0,1,.451.686,2.61,2.61,0,0,1,.169.982v3.757H51.588V180.23a1.49,1.49,0,0,0-.3-.945,1.108,1.108,0,0,0-.933-.38,1.227,1.227,0,0,0-.97.416,1.514,1.514,0,0,0-.367,1.042v3.5H47.89V180.23a1.517,1.517,0,0,0-.289-.945,1.106,1.106,0,0,0-.939-.38,1.251,1.251,0,0,0-.982.41,1.523,1.523,0,0,0-.367,1.059v3.493Z"/><path d="M54.152,182.314a1.724,1.724,0,0,1,.133-.693,1.5,1.5,0,0,1,.367-.523,1.816,1.816,0,0,1,.56-.35,3.208,3.208,0,0,1,.7-.192l1.565-.23a.516.516,0,0,0,.356-.156.457.457,0,0,0,.09-.277,1.02,1.02,0,0,0-.295-.729,1.281,1.281,0,0,0-.958-.307,1.241,1.241,0,0,0-.927.332,1.379,1.379,0,0,0-.385.836l-1.084-.252a1.951,1.951,0,0,1,.247-.759,2.027,2.027,0,0,1,.512-.6,2.378,2.378,0,0,1,.729-.385,2.779,2.779,0,0,1,.884-.138,3.124,3.124,0,0,1,1.108.174,2.117,2.117,0,0,1,.747.464,1.747,1.747,0,0,1,.421.674,2.454,2.454,0,0,1,.133.808v2.9c0,.257.008.461.023.614s.034.265.049.337H58.019a2.135,2.135,0,0,1-.043-.289c-.012-.12-.018-.285-.018-.494a2.189,2.189,0,0,1-.253.326,1.9,1.9,0,0,1-.386.312,2.12,2.12,0,0,1-.535.236,2.5,2.5,0,0,1-.692.09,2.119,2.119,0,0,1-.8-.144,1.988,1.988,0,0,1-.607-.38,1.637,1.637,0,0,1-.392-.548A1.608,1.608,0,0,1,54.152,182.314Zm2.1.782a2.274,2.274,0,0,0,.655-.09,1.367,1.367,0,0,0,.532-.289,1.39,1.39,0,0,0,.354-.529,2.154,2.154,0,0,0,.133-.8v-.265l-1.771.265a1.206,1.206,0,0,0-.6.271.748.748,0,0,0-.241.6.812.812,0,0,0,.253.584A.914.914,0,0,0,56.248,183.1Z"/><path d="M63.534,180.519l2.518,3.348H64.63l-1.891-2.553-.807.807v1.746h-1.12v-8.719h1.12v5.492l2.5-2.566H66Z"/><path d="M66.882,175.883a.791.791,0,0,1,.234-.584.78.78,0,0,1,.572-.236.806.806,0,0,1,.82.82.776.776,0,0,1-.236.571.788.788,0,0,1-.584.235.8.8,0,0,1-.806-.806Zm.253,7.984v-5.793h1.12v5.793Z"/><path d="M71.313,183.867H70.182v-5.793h1.107v.831a1.83,1.83,0,0,1,.8-.77,2.267,2.267,0,0,1,.987-.229,2.213,2.213,0,0,1,.909.174,1.791,1.791,0,0,1,.651.482,2.008,2.008,0,0,1,.385.728,3.116,3.116,0,0,1,.127.9v3.673H74.011v-3.48a2.38,2.38,0,0,0-.066-.566,1.182,1.182,0,0,0-.229-.464,1.127,1.127,0,0,0-.422-.314,1.584,1.584,0,0,0-.632-.113,1.311,1.311,0,0,0-.59.126,1.208,1.208,0,0,0-.422.343,1.513,1.513,0,0,0-.253.506,2.195,2.195,0,0,0-.084.614Z"/><path d="M77.624,183.927a1.55,1.55,0,0,0,.488,1.018,1.523,1.523,0,0,0,1.09.4,1.738,1.738,0,0,0,1.343-.469,2.041,2.041,0,0,0,.427-1.41v-.831a1.725,1.725,0,0,1-.662.676,2.111,2.111,0,0,1-1.108.276,2.648,2.648,0,0,1-1.066-.211,2.569,2.569,0,0,1-.843-.578,2.616,2.616,0,0,1-.555-.885,3.163,3.163,0,0,1-.2-1.132,3.117,3.117,0,0,1,.192-1.1,2.727,2.727,0,0,1,.543-.891,2.561,2.561,0,0,1,1.927-.825,2.353,2.353,0,0,1,1.119.24,1.545,1.545,0,0,1,.663.676v-.808H82.1v5.359a4.044,4.044,0,0,1-.144,1.078,2.4,2.4,0,0,1-.488.927,2.461,2.461,0,0,1-.9.651,3.36,3.36,0,0,1-1.372.247,3.043,3.043,0,0,1-1-.162,2.705,2.705,0,0,1-.82-.452,2.425,2.425,0,0,1-.578-.68,2.141,2.141,0,0,1-.27-.862Zm1.747-1.289a1.535,1.535,0,0,0,1.192-.5,2.22,2.22,0,0,0,0-2.7,1.535,1.535,0,0,0-1.192-.5,1.562,1.562,0,0,0-1.217.5,2.24,2.24,0,0,0-.006,2.7A1.567,1.567,0,0,0,79.371,182.638Z"/><path d="M33.854,193.67a3.661,3.661,0,0,0-.494-.036,1.611,1.611,0,0,0-1.151.415,1.819,1.819,0,0,0-.439,1.368v2.9H30.637v-5.793h1.109v1.012a1.886,1.886,0,0,1,.367-.548,2,2,0,0,1,.439-.337,1.642,1.642,0,0,1,.471-.175,2.35,2.35,0,0,1,.457-.049,1.927,1.927,0,0,1,.223.013,1.338,1.338,0,0,1,.151.024Z"/><path d="M38.936,197.621a1.453,1.453,0,0,1-.723.668,2.448,2.448,0,0,1-.988.211,2.2,2.2,0,0,1-.909-.181,1.966,1.966,0,0,1-.68-.494,2.221,2.221,0,0,1-.428-.734,2.716,2.716,0,0,1-.15-.916v-3.649H36.19v3.481a2.219,2.219,0,0,0,.072.572,1.361,1.361,0,0,0,.228.475,1.12,1.12,0,0,0,.4.326,1.387,1.387,0,0,0,.608.12,1.268,1.268,0,0,0,1.03-.409,1.622,1.622,0,0,0,.344-1.073v-3.492h1.131v4.721c0,.233.006.443.019.633s.026.335.042.439H38.984a1.813,1.813,0,0,1-.037-.307C38.94,197.872,38.936,197.74,38.936,197.621Z"/><path d="M41.934,198.319V189.6h1.121v3.745a1.831,1.831,0,0,1,.7-.686,2.294,2.294,0,0,1,1.216-.3,2.679,2.679,0,0,1,1.157.234,2.366,2.366,0,0,1,.83.651,2.788,2.788,0,0,1,.5.969,3.984,3.984,0,0,1,.17,1.18,3.91,3.91,0,0,1-.181,1.211,2.909,2.909,0,0,1-.524.976,2.464,2.464,0,0,1-.843.655,2.613,2.613,0,0,1-1.15.241,2.279,2.279,0,0,1-1.125-.264,1.969,1.969,0,0,1-.753-.735v.843Zm4.54-2.927a2.244,2.244,0,0,0-.457-1.487,1.548,1.548,0,0,0-1.253-.548,1.659,1.659,0,0,0-.692.145,1.616,1.616,0,0,0-.549.4,1.847,1.847,0,0,0-.354.638,2.656,2.656,0,0,0-.127.849,2.714,2.714,0,0,0,.127.856,1.949,1.949,0,0,0,.354.655,1.529,1.529,0,0,0,.549.416,1.644,1.644,0,0,0,.692.145,1.531,1.531,0,0,0,1.247-.566A2.3,2.3,0,0,0,46.474,195.392Z"/><path d="M49.076,198.319V189.6H50.2v3.745a1.838,1.838,0,0,1,.7-.686,2.3,2.3,0,0,1,1.217-.3,2.674,2.674,0,0,1,1.156.234,2.36,2.36,0,0,1,.831.651,2.822,2.822,0,0,1,.505.969,4.017,4.017,0,0,1,.17,1.18,3.91,3.91,0,0,1-.182,1.211,2.927,2.927,0,0,1-.524.976,2.464,2.464,0,0,1-.843.655,2.609,2.609,0,0,1-1.149.241,2.281,2.281,0,0,1-1.126-.264,1.969,1.969,0,0,1-.753-.735v.843Zm4.54-2.927a2.25,2.25,0,0,0-.458-1.487,1.545,1.545,0,0,0-1.253-.548,1.663,1.663,0,0,0-.692.145,1.6,1.6,0,0,0-.548.4,1.832,1.832,0,0,0-.355.638,2.657,2.657,0,0,0-.126.849,2.714,2.714,0,0,0,.126.856,1.933,1.933,0,0,0,.355.655,1.517,1.517,0,0,0,.548.416,1.647,1.647,0,0,0,.692.145,1.53,1.53,0,0,0,1.247-.566A2.306,2.306,0,0,0,53.616,195.392Z"/><path d="M61.263,196.669a2.553,2.553,0,0,1-.355.717,2.606,2.606,0,0,1-.566.578,2.715,2.715,0,0,1-.753.391,2.847,2.847,0,0,1-.927.145,3.059,3.059,0,0,1-1.108-.205,2.705,2.705,0,0,1-.934-.6,2.857,2.857,0,0,1-.638-.975,3.452,3.452,0,0,1-.235-1.312,3.262,3.262,0,0,1,.229-1.247,3.1,3.1,0,0,1,.608-.963,2.676,2.676,0,0,1,.886-.626,2.563,2.563,0,0,1,1.047-.224,3,3,0,0,1,1.187.224,2.369,2.369,0,0,1,.873.62,2.74,2.74,0,0,1,.535.956,3.879,3.879,0,0,1,.187,1.235c0,.073,0,.141-.006.205s-.011.117-.018.157h-4.36a2.052,2.052,0,0,0,.145.711,1.672,1.672,0,0,0,.367.559,1.6,1.6,0,0,0,.555.362,1.827,1.827,0,0,0,.68.126,1.564,1.564,0,0,0,1.084-.337,1.954,1.954,0,0,0,.542-.831Zm-1.144-1.842a1.59,1.59,0,0,0-.421-1.054,1.521,1.521,0,0,0-1.169-.428,1.56,1.56,0,0,0-.643.126,1.486,1.486,0,0,0-.483.337,1.725,1.725,0,0,0-.319.477,1.43,1.43,0,0,0-.133.542Z"/><path d="M65.959,193.67a3.649,3.649,0,0,0-.494-.036,1.608,1.608,0,0,0-1.149.415,1.82,1.82,0,0,0-.44,1.368v2.9H62.745v-5.793h1.107v1.012a1.888,1.888,0,0,1,.368-.548,1.963,1.963,0,0,1,.44-.337,1.625,1.625,0,0,1,.468-.175,2.361,2.361,0,0,1,.459-.049,1.9,1.9,0,0,1,.222.013,1.274,1.274,0,0,1,.15.024Z"/><path d="M70.175,198.319V189.6H71.3v3.745a1.838,1.838,0,0,1,.7-.686,2.3,2.3,0,0,1,1.217-.3,2.682,2.682,0,0,1,1.157.234,2.366,2.366,0,0,1,.83.651,2.822,2.822,0,0,1,.5.969,4.017,4.017,0,0,1,.17,1.18,3.94,3.94,0,0,1-.181,1.211,2.929,2.929,0,0,1-.525.976,2.454,2.454,0,0,1-.843.655,2.609,2.609,0,0,1-1.149.241,2.283,2.283,0,0,1-1.126-.264,1.969,1.969,0,0,1-.753-.735v.843Zm4.54-2.927a2.244,2.244,0,0,0-.458-1.487A1.545,1.545,0,0,0,73,193.357a1.663,1.663,0,0,0-.692.145,1.612,1.612,0,0,0-.548.4,1.832,1.832,0,0,0-.355.638,2.657,2.657,0,0,0-.126.849,2.714,2.714,0,0,0,.126.856,1.933,1.933,0,0,0,.355.655,1.526,1.526,0,0,0,.548.416,1.647,1.647,0,0,0,.692.145,1.528,1.528,0,0,0,1.247-.566A2.3,2.3,0,0,0,74.715,195.392Z"/><path d="M76.955,196.765a1.732,1.732,0,0,1,.132-.692,1.51,1.51,0,0,1,.368-.524,1.84,1.84,0,0,1,.559-.349,3.224,3.224,0,0,1,.7-.193l1.565-.228a.523.523,0,0,0,.356-.157.453.453,0,0,0,.09-.278,1.02,1.02,0,0,0-.3-.728,1.279,1.279,0,0,0-.957-.308,1.239,1.239,0,0,0-.927.332,1.391,1.391,0,0,0-.386.837l-1.084-.253a1.985,1.985,0,0,1,.247-.759,2.05,2.05,0,0,1,.512-.6,2.379,2.379,0,0,1,.729-.385,2.789,2.789,0,0,1,.884-.139,3.1,3.1,0,0,1,1.109.176,2.083,2.083,0,0,1,.747.463,1.747,1.747,0,0,1,.421.674,2.474,2.474,0,0,1,.132.807v2.9q0,.387.024.615a3.258,3.258,0,0,0,.049.337H80.821a2.547,2.547,0,0,1-.043-.289c-.012-.121-.017-.285-.017-.493a2.233,2.233,0,0,1-.253.324,1.938,1.938,0,0,1-.386.314,2.126,2.126,0,0,1-.536.234,2.417,2.417,0,0,1-.692.091,2.117,2.117,0,0,1-.8-.145,1.984,1.984,0,0,1-.608-.379,1.661,1.661,0,0,1-.392-.548A1.628,1.628,0,0,1,76.955,196.765Zm2.095.783a2.316,2.316,0,0,0,.656-.09,1.3,1.3,0,0,0,.886-.819,2.167,2.167,0,0,0,.132-.8v-.265l-1.771.265a1.181,1.181,0,0,0-.6.271.751.751,0,0,0-.242.6.82.82,0,0,0,.253.585A.919.919,0,0,0,79.05,197.548Z"/><path d="M84.747,198.319H83.615v-5.793h1.107v.831a1.84,1.84,0,0,1,.8-.771,2.28,2.28,0,0,1,.987-.228,2.217,2.217,0,0,1,.909.174,1.8,1.8,0,0,1,.65.481,2,2,0,0,1,.386.73,3.1,3.1,0,0,1,.126.9v3.674H87.445v-3.481a2.335,2.335,0,0,0-.067-.566,1.182,1.182,0,0,0-.229-.464,1.112,1.112,0,0,0-.422-.312,1.543,1.543,0,0,0-.631-.115,1.308,1.308,0,0,0-.59.126,1.221,1.221,0,0,0-.422.343,1.5,1.5,0,0,0-.253.506,2.2,2.2,0,0,0-.084.615Z"/><path d="M94.441,197.44a1.882,1.882,0,0,1-.655.729,1.982,1.982,0,0,1-1.139.306,2.68,2.68,0,0,1-1.144-.235,2.5,2.5,0,0,1-.861-.65,2.956,2.956,0,0,1-.548-.976,3.67,3.67,0,0,1-.193-1.209,3.343,3.343,0,0,1,.2-1.162,2.992,2.992,0,0,1,.558-.964,2.714,2.714,0,0,1,.869-.662,2.707,2.707,0,0,1,1.8-.163,1.925,1.925,0,0,1,.512.222,1.552,1.552,0,0,1,.362.314,1.316,1.316,0,0,1,.216.355V189.6h1.121v7.647q0,.421.024.711c.015.192.027.313.035.361H94.5a2.375,2.375,0,0,1-.041-.307c-.013-.14-.019-.3-.019-.475Zm-3.384-2.035a2.815,2.815,0,0,0,.115.824,1.962,1.962,0,0,0,.331.657,1.523,1.523,0,0,0,.53.433,1.584,1.584,0,0,0,.723.157,1.494,1.494,0,0,0,.7-.163,1.624,1.624,0,0,0,.529-.439,1.965,1.965,0,0,0,.331-.663,2.913,2.913,0,0,0,.115-.831,2.277,2.277,0,0,0-.44-1.457,1.474,1.474,0,0,0-1.223-.554,1.634,1.634,0,0,0-.7.15,1.524,1.524,0,0,0-.541.423,1.919,1.919,0,0,0-.344.644A2.631,2.631,0,0,0,91.057,195.405Z"/><path d="M51.761,212.831a1.564,1.564,0,0,0,.488,1.018,1.523,1.523,0,0,0,1.09.4,1.733,1.733,0,0,0,1.343-.47,2.033,2.033,0,0,0,.427-1.409v-.831a1.723,1.723,0,0,1-.662.675,2.106,2.106,0,0,1-1.108.277,2.643,2.643,0,0,1-1.065-.211,2.532,2.532,0,0,1-1.4-1.463,3.145,3.145,0,0,1-.2-1.132,3.091,3.091,0,0,1,.193-1.1,2.723,2.723,0,0,1,.542-.892,2.555,2.555,0,0,1,1.927-.824,2.345,2.345,0,0,1,1.12.24,1.548,1.548,0,0,1,.663.675v-.807h1.119v5.359a4.05,4.05,0,0,1-.144,1.078,2.41,2.41,0,0,1-.488.927,2.489,2.489,0,0,1-.9.651,3.382,3.382,0,0,1-1.373.247,3.028,3.028,0,0,1-1.006-.163,2.707,2.707,0,0,1-.818-.452,2.4,2.4,0,0,1-.578-.68,2.176,2.176,0,0,1-.272-.861Zm1.747-1.289a1.535,1.535,0,0,0,1.192-.506,2.218,2.218,0,0,0,0-2.7,1.535,1.535,0,0,0-1.192-.506,1.562,1.562,0,0,0-1.217.506,2.239,2.239,0,0,0-.006,2.7A1.566,1.566,0,0,0,53.508,211.542Z"/><path d="M61.806,212.072a1.449,1.449,0,0,1-.723.668,2.439,2.439,0,0,1-.988.211,2.213,2.213,0,0,1-.91-.18,1.985,1.985,0,0,1-.68-.494,2.233,2.233,0,0,1-.427-.735,2.708,2.708,0,0,1-.151-.916v-3.648H59.06v3.48a2.171,2.171,0,0,0,.072.572,1.329,1.329,0,0,0,.229.477,1.1,1.1,0,0,0,.4.324,1.391,1.391,0,0,0,.609.121,1.268,1.268,0,0,0,1.03-.41,1.616,1.616,0,0,0,.343-1.071v-3.493h1.132V211.7q0,.349.019.632c.011.189.025.335.041.44H61.853a1.772,1.772,0,0,1-.035-.308C61.81,212.323,61.806,212.193,61.806,212.072Z"/><path d="M65.936,212.771H64.8v-5.793h1.108v.831a1.825,1.825,0,0,1,.794-.771,2.292,2.292,0,0,1,.988-.229,2.225,2.225,0,0,1,.91.175,1.793,1.793,0,0,1,.65.482,2.023,2.023,0,0,1,.385.728,3.14,3.14,0,0,1,.127.9v3.673H68.633v-3.48a2.344,2.344,0,0,0-.066-.567,1.169,1.169,0,0,0-.228-.463,1.118,1.118,0,0,0-.421-.314,1.579,1.579,0,0,0-.634-.114,1.3,1.3,0,0,0-.59.127,1.214,1.214,0,0,0-.421.343,1.508,1.508,0,0,0-.253.5,2.166,2.166,0,0,0-.084.615Z"/><path d="M72.054,210.9a1.244,1.244,0,0,0,.4.771,1.347,1.347,0,0,0,.952.313,1.06,1.06,0,0,0,.734-.229.706.706,0,0,0,.253-.542.641.641,0,0,0-.192-.47,1.134,1.134,0,0,0-.555-.276l-.987-.217a1.884,1.884,0,0,1-1.065-.578,1.538,1.538,0,0,1-.38-1.048,1.6,1.6,0,0,1,.162-.7,1.967,1.967,0,0,1,.44-.584,2.062,2.062,0,0,1,.656-.4,2.24,2.24,0,0,1,.8-.144,2.577,2.577,0,0,1,.994.169,2.087,2.087,0,0,1,.655.415,1.841,1.841,0,0,1,.38.512,2.419,2.419,0,0,1,.174.458l-1,.373a2.077,2.077,0,0,0-.084-.277.967.967,0,0,0-.192-.319,1.078,1.078,0,0,0-.362-.258,1.3,1.3,0,0,0-.565-.109,1.011,1.011,0,0,0-.7.235.7.7,0,0,0-.266.535c0,.37.222.6.663.7l.94.205a2.148,2.148,0,0,1,1.2.62,1.651,1.651,0,0,1,.271,1.728,1.845,1.845,0,0,1-.392.578,1.9,1.9,0,0,1-.656.428,2.482,2.482,0,0,1-.94.162,2.811,2.811,0,0,1-1.029-.168,2.352,2.352,0,0,1-.71-.422,1.87,1.87,0,0,1-.434-.548,1.781,1.781,0,0,1-.187-.548Z"/><path d="M247.934,197.638v-8.08h1.1v.9a2.018,2.018,0,0,1,.735-.734,2.267,2.267,0,0,1,1.2-.3,2.667,2.667,0,0,1,1.15.235,2.3,2.3,0,0,1,.831.645,2.89,2.89,0,0,1,.506.963,3.912,3.912,0,0,1,.175,1.18,3.847,3.847,0,0,1-.181,1.2,2.9,2.9,0,0,1-.529.97,2.484,2.484,0,0,1-.85.65,2.652,2.652,0,0,1-1.138.235,2.267,2.267,0,0,1-1.156-.278,2,2,0,0,1-.723-.661v3.07Zm4.541-5.19a2.538,2.538,0,0,0-.121-.8,2.038,2.038,0,0,0-.337-.639,1.568,1.568,0,0,0-.536-.427,1.612,1.612,0,0,0-.716-.157,1.586,1.586,0,0,0-.7.157,1.693,1.693,0,0,0-.548.427,1.891,1.891,0,0,0-.349.639,2.567,2.567,0,0,0-.12.8,2.723,2.723,0,0,0,.12.825,1.852,1.852,0,0,0,.349.65,1.686,1.686,0,0,0,1.963.421,1.568,1.568,0,0,0,.536-.421,1.927,1.927,0,0,0,.343-.65A2.692,2.692,0,0,0,252.475,192.448Z"/><path d="M254.714,193.8a1.712,1.712,0,0,1,.133-.692,1.512,1.512,0,0,1,.367-.525,1.864,1.864,0,0,1,.56-.349,3.209,3.209,0,0,1,.7-.193l1.566-.228a.518.518,0,0,0,.355-.157.449.449,0,0,0,.09-.277,1.012,1.012,0,0,0-.295-.728,1.282,1.282,0,0,0-.958-.308,1.244,1.244,0,0,0-.927.331,1.393,1.393,0,0,0-.385.837l-1.084-.253a2,2,0,0,1,.247-.758,2.021,2.021,0,0,1,.511-.6,2.363,2.363,0,0,1,.73-.385,2.754,2.754,0,0,1,.885-.14,3.1,3.1,0,0,1,1.107.176,2.065,2.065,0,0,1,.747.463,1.739,1.739,0,0,1,.421.675,2.442,2.442,0,0,1,.133.806v2.9a5.884,5.884,0,0,0,.024.615c.016.153.033.265.048.337h-1.107a2.185,2.185,0,0,1-.042-.289,4.869,4.869,0,0,1-.019-.493,2.13,2.13,0,0,1-.253.324,1.93,1.93,0,0,1-.385.314,2.126,2.126,0,0,1-.536.234,2.422,2.422,0,0,1-.692.091,2.119,2.119,0,0,1-.8-.145,1.96,1.96,0,0,1-.607-.379,1.678,1.678,0,0,1-.393-.548A1.623,1.623,0,0,1,254.714,193.8Zm2.1.783a2.316,2.316,0,0,0,.656-.091A1.357,1.357,0,0,0,258,194.2a1.379,1.379,0,0,0,.354-.53,2.142,2.142,0,0,0,.133-.8v-.264l-1.77.264a1.2,1.2,0,0,0-.6.271.751.751,0,0,0-.241.6.816.816,0,0,0,.253.584A.916.916,0,0,0,256.81,194.58Z"/><path d="M263.806,190.424a1.736,1.736,0,0,0-.661.127,1.628,1.628,0,0,0-.561.38,1.812,1.812,0,0,0-.391.632,2.488,2.488,0,0,0-.145.885,2.45,2.45,0,0,0,.145.873,1.931,1.931,0,0,0,.385.638,1.564,1.564,0,0,0,.567.391,1.892,1.892,0,0,0,1.366.013,1.489,1.489,0,0,0,.766-.693,2.079,2.079,0,0,0,.155-.379l1,.433a2.875,2.875,0,0,1-.313.632,2.46,2.46,0,0,1-.53.584,2.631,2.631,0,0,1-.764.429,2.92,2.92,0,0,1-1.006.162,2.883,2.883,0,0,1-1.174-.235,2.728,2.728,0,0,1-.921-.651,3.078,3.078,0,0,1-.609-.975,3.267,3.267,0,0,1-.222-1.222,3.352,3.352,0,0,1,.222-1.241,2.892,2.892,0,0,1,.615-.969,2.806,2.806,0,0,1,.927-.632,2.89,2.89,0,0,1,1.149-.23,2.936,2.936,0,0,1,1.019.163,2.566,2.566,0,0,1,.758.428,2.241,2.241,0,0,1,.512.6,3.064,3.064,0,0,1,.289.656l-1.023.434a2.43,2.43,0,0,0-.169-.434,1.4,1.4,0,0,0-.3-.391,1.544,1.544,0,0,0-.452-.289A1.6,1.6,0,0,0,263.806,190.424Z"/><path d="M270.479,192,273,195.35h-1.421l-1.891-2.553-.807.806v1.747h-1.12v-8.719h1.12v5.492l2.5-2.565h1.567Z"/><path d="M273.827,187.365a.8.8,0,0,1,.234-.584.782.782,0,0,1,.572-.234.8.8,0,0,1,.82.818.782.782,0,0,1-.235.573.8.8,0,0,1-.585.235.8.8,0,0,1-.806-.808Zm.253,7.985v-5.792h1.12v5.792Z"/><path d="M278.258,195.35h-1.132v-5.792h1.108v.831a1.827,1.827,0,0,1,.8-.771,2.284,2.284,0,0,1,.987-.229,2.2,2.2,0,0,1,.909.175,1.786,1.786,0,0,1,.651.481,2,2,0,0,1,.385.729,3.1,3.1,0,0,1,.127.9v3.673h-1.132v-3.48a2.349,2.349,0,0,0-.067-.567,1.176,1.176,0,0,0-.228-.463,1.112,1.112,0,0,0-.422-.313,1.569,1.569,0,0,0-.632-.115,1.308,1.308,0,0,0-.59.127,1.219,1.219,0,0,0-.422.343,1.522,1.522,0,0,0-.253.506,2.19,2.19,0,0,0-.084.614Z"/><path d="M284.568,195.411a1.563,1.563,0,0,0,.489,1.017,1.523,1.523,0,0,0,1.089.4,1.729,1.729,0,0,0,1.343-.471,2.029,2.029,0,0,0,.427-1.408v-.831a1.7,1.7,0,0,1-.661.674,2.1,2.1,0,0,1-1.109.278,2.66,2.66,0,0,1-1.065-.211,2.532,2.532,0,0,1-1.4-1.463,3.153,3.153,0,0,1-.2-1.132,3.093,3.093,0,0,1,.194-1.1,2.685,2.685,0,0,1,.542-.891,2.551,2.551,0,0,1,1.926-.825,2.335,2.335,0,0,1,1.121.241,1.538,1.538,0,0,1,.662.674v-.806h1.12v5.359A4.056,4.056,0,0,1,288.9,196a2.377,2.377,0,0,1-.488.927,2.47,2.47,0,0,1-.9.65,3.382,3.382,0,0,1-1.373.247,3,3,0,0,1-1-.163,2.71,2.71,0,0,1-.819-.451,2.4,2.4,0,0,1-.578-.681,2.159,2.159,0,0,1-.271-.86Zm1.747-1.289a1.536,1.536,0,0,0,1.193-.506,2.22,2.22,0,0,0,0-2.7,1.536,1.536,0,0,0-1.193-.506,1.559,1.559,0,0,0-1.216.506,2.236,2.236,0,0,0-.006,2.7A1.565,1.565,0,0,0,286.315,194.122Z"/><path d="M48.071,40.722h1.252v1.024H48.071v3.011a.861.861,0,0,0,.18.595.817.817,0,0,0,.626.2,2.351,2.351,0,0,0,.241-.012.948.948,0,0,0,.2-.036v.964a2.651,2.651,0,0,1-.277.065,2.409,2.409,0,0,1-.493.043,1.605,1.605,0,0,1-1.181-.428,1.641,1.641,0,0,1-.433-1.222V41.746H45.831V40.722h.313a.84.84,0,0,0,.68-.253.962.962,0,0,0,.211-.638v-.94h1.036Z"/><path d="M51.961,46.515H50.829V37.8h1.132v3.6a1.73,1.73,0,0,1,.783-.65,2.549,2.549,0,0,1,.975-.193,2.237,2.237,0,0,1,.909.174,1.79,1.79,0,0,1,.65.483,2.008,2.008,0,0,1,.385.728,3.106,3.106,0,0,1,.127.9v3.673H54.658v-3.48a2.344,2.344,0,0,0-.066-.567,1.158,1.158,0,0,0-.229-.463,1.106,1.106,0,0,0-.422-.314,1.563,1.563,0,0,0-.632-.114,1.28,1.28,0,0,0-.572.121,1.218,1.218,0,0,0-.415.324,1.468,1.468,0,0,0-.259.482,2.173,2.173,0,0,0-.1.6Z"/><path d="M57.344,38.53a.8.8,0,0,1,.234-.584.779.779,0,0,1,.573-.235.8.8,0,0,1,.819.819.776.776,0,0,1-.235.572.8.8,0,0,1-.584.235.8.8,0,0,1-.807-.807Zm.253,7.985V40.722h1.12v5.793Z"/><path d="M61.776,46.515H60.644V40.722h1.108v.831a1.825,1.825,0,0,1,.794-.771,2.277,2.277,0,0,1,.988-.229,2.245,2.245,0,0,1,.91.174,1.8,1.8,0,0,1,.65.483,2.023,2.023,0,0,1,.385.728,3.14,3.14,0,0,1,.126.9v3.673H64.473v-3.48a2.345,2.345,0,0,0-.065-.567,1.16,1.16,0,0,0-.23-.463,1.11,1.11,0,0,0-.421-.314,1.566,1.566,0,0,0-.632-.114,1.292,1.292,0,0,0-.59.127,1.208,1.208,0,0,0-.422.343,1.489,1.489,0,0,0-.253.505,2.2,2.2,0,0,0-.084.615Z"/><path d="M68.087,46.575a1.564,1.564,0,0,0,.488,1.018,1.526,1.526,0,0,0,1.09.4,1.732,1.732,0,0,0,1.342-.47,2.033,2.033,0,0,0,.428-1.409v-.831a1.719,1.719,0,0,1-.663.675,2.1,2.1,0,0,1-1.107.276,2.656,2.656,0,0,1-1.067-.21,2.537,2.537,0,0,1-1.4-1.463,3.145,3.145,0,0,1-.2-1.132,3.091,3.091,0,0,1,.193-1.1,2.706,2.706,0,0,1,.542-.892,2.555,2.555,0,0,1,1.927-.824,2.341,2.341,0,0,1,1.119.24,1.543,1.543,0,0,1,.663.675v-.807h1.12v5.359a4.05,4.05,0,0,1-.144,1.078,2.41,2.41,0,0,1-.488.927,2.5,2.5,0,0,1-.9.651,3.377,3.377,0,0,1-1.372.247,3.028,3.028,0,0,1-1.006-.163,2.7,2.7,0,0,1-.819-.452,2.411,2.411,0,0,1-.578-.68,2.158,2.158,0,0,1-.271-.862Zm1.746-1.289a1.534,1.534,0,0,0,1.192-.506,2.214,2.214,0,0,0,0-2.7,1.534,1.534,0,0,0-1.192-.506,1.562,1.562,0,0,0-1.216.506,2.237,2.237,0,0,0-.007,2.7A1.569,1.569,0,0,0,69.833,45.286Z"/><path d="M74.855,44.648a1.244,1.244,0,0,0,.4.771,1.347,1.347,0,0,0,.952.313,1.064,1.064,0,0,0,.735-.229.709.709,0,0,0,.253-.542.642.642,0,0,0-.193-.47,1.122,1.122,0,0,0-.554-.276L75.457,44a1.881,1.881,0,0,1-1.065-.578,1.538,1.538,0,0,1-.38-1.048,1.572,1.572,0,0,1,.163-.7,1.964,1.964,0,0,1,.439-.584,2.056,2.056,0,0,1,.657-.4,2.235,2.235,0,0,1,.8-.144,2.568,2.568,0,0,1,.993.169,2.092,2.092,0,0,1,.656.415,1.817,1.817,0,0,1,.379.512,2.516,2.516,0,0,1,.176.458l-1,.373a2.65,2.65,0,0,0-.084-.277A.988.988,0,0,0,77,41.872a1.093,1.093,0,0,0-.362-.259,1.318,1.318,0,0,0-.565-.108,1.011,1.011,0,0,0-.7.235.7.7,0,0,0-.265.535q0,.555.663.7l.939.205a2.148,2.148,0,0,1,1.2.62,1.651,1.651,0,0,1,.271,1.728,1.866,1.866,0,0,1-1.048,1,2.46,2.46,0,0,1-.939.163,2.817,2.817,0,0,1-1.03-.168,2.371,2.371,0,0,1-.711-.422,1.883,1.883,0,0,1-.433-.548,1.781,1.781,0,0,1-.187-.548Z"/><path d="M82.948,46.515V37.976h1.2v8.539Z"/><path d="M94.256,44.864a2.514,2.514,0,0,1-.355.717,2.585,2.585,0,0,1-.566.578,2.745,2.745,0,0,1-.753.392,2.848,2.848,0,0,1-.927.144,3.038,3.038,0,0,1-1.108-.2,2.715,2.715,0,0,1-.934-.6,2.881,2.881,0,0,1-.638-.977,3.449,3.449,0,0,1-.234-1.312,3.262,3.262,0,0,1,.228-1.247,3.125,3.125,0,0,1,.609-.963,2.7,2.7,0,0,1,.885-.626,2.58,2.58,0,0,1,1.048-.223,3.014,3.014,0,0,1,1.186.223,2.4,2.4,0,0,1,.873.62,2.749,2.749,0,0,1,.536.958,3.9,3.9,0,0,1,.186,1.234c0,.072,0,.141-.006.2a1.446,1.446,0,0,1-.017.157H89.908a2.07,2.07,0,0,0,.145.711,1.684,1.684,0,0,0,.368.56,1.611,1.611,0,0,0,.554.361,1.831,1.831,0,0,0,.68.127,1.56,1.56,0,0,0,1.084-.338,1.942,1.942,0,0,0,.542-.831Zm-1.144-1.842a1.587,1.587,0,0,0-.421-1.054,1.519,1.519,0,0,0-1.169-.427,1.56,1.56,0,0,0-.643.126,1.489,1.489,0,0,0-.483.338,1.7,1.7,0,0,0-.318.475,1.425,1.425,0,0,0-.133.542Z"/><path d="M96.87,46.515H95.738V40.722h1.107v.831a1.832,1.832,0,0,1,.8-.771,2.277,2.277,0,0,1,.988-.229,2.245,2.245,0,0,1,.91.174,1.794,1.794,0,0,1,.649.483,2.008,2.008,0,0,1,.385.728,3.106,3.106,0,0,1,.127.9v3.673H99.567v-3.48a2.344,2.344,0,0,0-.066-.567,1.158,1.158,0,0,0-.229-.463,1.106,1.106,0,0,0-.422-.314,1.563,1.563,0,0,0-.632-.114,1.3,1.3,0,0,0-.59.127,1.214,1.214,0,0,0-.421.343,1.471,1.471,0,0,0-.253.505,2.161,2.161,0,0,0-.084.615Z"/><path d="M102.506,40.722h1.132v6.467a1.945,1.945,0,0,1-.421,1.3,1.462,1.462,0,0,1-1.18.5,2.571,2.571,0,0,1-.471-.031,1.334,1.334,0,0,1-.2-.054v-.951c.033.008.079.015.14.024a1.71,1.71,0,0,0,.222.012.732.732,0,0,0,.615-.222,1.021,1.021,0,0,0,.168-.621Zm-.253-2.216a.794.794,0,0,1,.235-.584.779.779,0,0,1,.572-.235.8.8,0,0,1,.819.819.777.777,0,0,1-.235.572.792.792,0,0,1-.584.235.8.8,0,0,1-.807-.807Z"/><path d="M108.046,40.541a2.976,2.976,0,0,1,1.192.235,2.9,2.9,0,0,1,.939.644,2.867,2.867,0,0,1,.615.97,3.368,3.368,0,0,1,.216,1.222,3.418,3.418,0,0,1-.216,1.229,2.841,2.841,0,0,1-.615.975,2.883,2.883,0,0,1-.939.644,3.141,3.141,0,0,1-2.384,0,2.888,2.888,0,0,1-.94-.644,2.841,2.841,0,0,1-.615-.975,3.418,3.418,0,0,1-.216-1.229,3.368,3.368,0,0,1,.216-1.222,2.867,2.867,0,0,1,.615-.97,2.9,2.9,0,0,1,.94-.644A2.969,2.969,0,0,1,108.046,40.541Zm0,5.143a1.8,1.8,0,0,0,.687-.133,1.668,1.668,0,0,0,.577-.4,1.894,1.894,0,0,0,.4-.65,2.544,2.544,0,0,0,.144-.892,2.488,2.488,0,0,0-.144-.885,1.9,1.9,0,0,0-.4-.644,1.684,1.684,0,0,0-.577-.4,1.851,1.851,0,0,0-1.373,0,1.682,1.682,0,0,0-.579.4,1.911,1.911,0,0,0-.4.644,2.488,2.488,0,0,0-.144.885,2.544,2.544,0,0,0,.144.892,1.91,1.91,0,0,0,.4.65,1.666,1.666,0,0,0,.579.4A1.78,1.78,0,0,0,108.046,45.684Z"/><path d="M112.418,48.936l1.444-3.06-2.492-5.154h1.3l1.806,4,1.734-4h1.216l-3.769,8.214Z"/><path d="M125.58,45.636a1.875,1.875,0,0,1-.656.728,1.979,1.979,0,0,1-1.138.307,2.677,2.677,0,0,1-1.144-.235,2.516,2.516,0,0,1-.862-.65,2.971,2.971,0,0,1-.547-.976,3.681,3.681,0,0,1-.193-1.21,3.366,3.366,0,0,1,.2-1.162,3.047,3.047,0,0,1,.56-.964,2.721,2.721,0,0,1,.867-.662,2.531,2.531,0,0,1,1.12-.247,2.5,2.5,0,0,1,.681.084,1.948,1.948,0,0,1,.511.224,1.59,1.59,0,0,1,.362.312,1.351,1.351,0,0,1,.217.356V37.8h1.12v7.648q0,.421.023.71c.016.193.029.314.037.362h-1.1a2.05,2.05,0,0,1-.042-.308c-.013-.14-.019-.3-.019-.475ZM122.2,43.6a2.822,2.822,0,0,0,.115.825,1.976,1.976,0,0,0,.331.656,1.546,1.546,0,0,0,.53.434,1.6,1.6,0,0,0,.722.157,1.5,1.5,0,0,0,.7-.163,1.585,1.585,0,0,0,.529-.44,1.952,1.952,0,0,0,.332-.662,2.913,2.913,0,0,0,.114-.831,2.283,2.283,0,0,0-.439-1.457,1.476,1.476,0,0,0-1.223-.555,1.631,1.631,0,0,0-.7.151,1.554,1.554,0,0,0-.541.422,1.929,1.929,0,0,0-.344.644A2.635,2.635,0,0,0,122.2,43.6Z"/><path d="M131.084,40.541a2.984,2.984,0,0,1,1.193.235,2.91,2.91,0,0,1,.939.644,2.865,2.865,0,0,1,.614.97,3.347,3.347,0,0,1,.217,1.222,3.4,3.4,0,0,1-.217,1.229,2.839,2.839,0,0,1-.614.975,2.894,2.894,0,0,1-.939.644,3.141,3.141,0,0,1-2.384,0,2.877,2.877,0,0,1-.94-.644,2.841,2.841,0,0,1-.615-.975,3.418,3.418,0,0,1-.216-1.229,3.368,3.368,0,0,1,.216-1.222,2.844,2.844,0,0,1,1.555-1.614A2.968,2.968,0,0,1,131.084,40.541Zm0,5.143a1.792,1.792,0,0,0,.687-.133,1.662,1.662,0,0,0,.578-.4,1.91,1.91,0,0,0,.4-.65,2.544,2.544,0,0,0,.144-.892,2.488,2.488,0,0,0-.144-.885,1.911,1.911,0,0,0-.4-.644,1.679,1.679,0,0,0-.578-.4,1.851,1.851,0,0,0-1.373,0,1.688,1.688,0,0,0-.578.4,1.9,1.9,0,0,0-.4.644,2.488,2.488,0,0,0-.144.885,2.544,2.544,0,0,0,.144.892,1.894,1.894,0,0,0,.4.65,1.671,1.671,0,0,0,.578.4A1.787,1.787,0,0,0,131.084,45.684Z"/><path d="M135.239,38.53a.792.792,0,0,1,.235-.584.777.777,0,0,1,.572-.235.8.8,0,0,1,.819.819.783.783,0,0,1-.234.572.8.8,0,0,1-.585.235.8.8,0,0,1-.807-.807Zm.253,7.985V40.722h1.12v5.793Z"/><path d="M139.671,46.515h-1.132V40.722h1.108v.831a1.827,1.827,0,0,1,.8-.771,2.27,2.27,0,0,1,.987-.229,2.238,2.238,0,0,1,.91.174,1.807,1.807,0,0,1,.65.483,2.008,2.008,0,0,1,.385.728,3.106,3.106,0,0,1,.127.9v3.673h-1.132v-3.48a2.343,2.343,0,0,0-.067-.567,1.169,1.169,0,0,0-.228-.463,1.114,1.114,0,0,0-.422-.314,1.569,1.569,0,0,0-.632-.114,1.3,1.3,0,0,0-.59.127,1.208,1.208,0,0,0-.422.343,1.508,1.508,0,0,0-.253.505,2.2,2.2,0,0,0-.084.615Z"/><path d="M145.981,46.575a1.565,1.565,0,0,0,.489,1.018,1.527,1.527,0,0,0,1.089.4,1.732,1.732,0,0,0,1.343-.47,2.033,2.033,0,0,0,.427-1.409v-.831a1.713,1.713,0,0,1-.661.675,2.11,2.11,0,0,1-1.109.276,2.643,2.643,0,0,1-1.065-.21,2.583,2.583,0,0,1-.844-.578,2.614,2.614,0,0,1-.554-.885,3.145,3.145,0,0,1-.2-1.132,3.091,3.091,0,0,1,.193-1.1,2.69,2.69,0,0,1,.542-.892,2.555,2.555,0,0,1,1.926-.824,2.347,2.347,0,0,1,1.121.24,1.541,1.541,0,0,1,.662.675v-.807h1.12v5.359a4.05,4.05,0,0,1-.145,1.078,2.37,2.37,0,0,1-.488.927,2.472,2.472,0,0,1-.9.651,3.382,3.382,0,0,1-1.373.247,3.03,3.03,0,0,1-1-.163,2.712,2.712,0,0,1-.819-.452,2.4,2.4,0,0,1-.578-.68,2.158,2.158,0,0,1-.271-.862Zm1.747-1.289a1.536,1.536,0,0,0,1.193-.506,2.218,2.218,0,0,0,0-2.7,1.536,1.536,0,0,0-1.193-.506,1.56,1.56,0,0,0-1.216.506,2.235,2.235,0,0,0-.006,2.7A1.565,1.565,0,0,0,147.728,45.286Z"/><line class="cls-5" x1="40.298" y1="57.818" x2="156.173" y2="57.818"/><path d="M198.283,40.722h1.253v1.024h-1.253v3.011a.861.861,0,0,0,.181.595.818.818,0,0,0,.627.2,2.378,2.378,0,0,0,.241-.012.949.949,0,0,0,.2-.036v.964a2.679,2.679,0,0,1-.276.065,2.433,2.433,0,0,1-.494.043,1.6,1.6,0,0,1-1.18-.428,1.633,1.633,0,0,1-.434-1.222V41.746h-1.108V40.722h.313a.838.838,0,0,0,.68-.253.962.962,0,0,0,.211-.638v-.94h1.035Z"/><path d="M202.173,46.515h-1.132V37.8h1.132v3.6a1.741,1.741,0,0,1,.783-.65,2.558,2.558,0,0,1,.976-.193,2.237,2.237,0,0,1,.909.174,1.8,1.8,0,0,1,.65.483,2.025,2.025,0,0,1,.386.728,3.14,3.14,0,0,1,.125.9v3.673h-1.131v-3.48a2.344,2.344,0,0,0-.066-.567,1.16,1.16,0,0,0-.23-.463,1.1,1.1,0,0,0-.421-.314,1.561,1.561,0,0,0-.631-.114,1.282,1.282,0,0,0-.573.121,1.228,1.228,0,0,0-.415.324,1.45,1.45,0,0,0-.259.482,2.173,2.173,0,0,0-.1.6Z"/><path d="M207.557,38.53a.792.792,0,0,1,.235-.584.777.777,0,0,1,.572-.235.8.8,0,0,1,.819.819.783.783,0,0,1-.234.572.8.8,0,0,1-.585.235.8.8,0,0,1-.807-.807Zm.253,7.985V40.722h1.12v5.793Z"/><path d="M211.989,46.515h-1.132V40.722h1.108v.831a1.825,1.825,0,0,1,.794-.771,2.277,2.277,0,0,1,.988-.229,2.242,2.242,0,0,1,.91.174,1.807,1.807,0,0,1,.65.483,2.006,2.006,0,0,1,.384.728,3.106,3.106,0,0,1,.128.9v3.673h-1.133v-3.48a2.344,2.344,0,0,0-.066-.567,1.169,1.169,0,0,0-.228-.463,1.114,1.114,0,0,0-.422-.314,1.571,1.571,0,0,0-.633-.114,1.3,1.3,0,0,0-.59.127,1.214,1.214,0,0,0-.421.343,1.508,1.508,0,0,0-.253.505,2.161,2.161,0,0,0-.084.615Z"/><path d="M218.3,46.575a1.565,1.565,0,0,0,.489,1.018,1.525,1.525,0,0,0,1.089.4,1.732,1.732,0,0,0,1.343-.47,2.033,2.033,0,0,0,.427-1.409v-.831a1.72,1.72,0,0,1-.661.675,2.11,2.11,0,0,1-1.109.276,2.643,2.643,0,0,1-1.065-.21,2.583,2.583,0,0,1-.844-.578,2.614,2.614,0,0,1-.554-.885,3.145,3.145,0,0,1-.2-1.132,3.069,3.069,0,0,1,.193-1.1,2.69,2.69,0,0,1,.542-.892,2.555,2.555,0,0,1,1.926-.824,2.349,2.349,0,0,1,1.121.24,1.546,1.546,0,0,1,.662.675v-.807h1.119v5.359a4.05,4.05,0,0,1-.144,1.078,2.4,2.4,0,0,1-.488.927,2.48,2.48,0,0,1-.9.651,3.382,3.382,0,0,1-1.373.247,3.026,3.026,0,0,1-1-.163,2.712,2.712,0,0,1-.819-.452,2.4,2.4,0,0,1-.578-.68,2.158,2.158,0,0,1-.271-.862Zm1.747-1.289a1.537,1.537,0,0,0,1.193-.506,2.222,2.222,0,0,0,0-2.7,1.537,1.537,0,0,0-1.193-.506,1.56,1.56,0,0,0-1.216.506,2.235,2.235,0,0,0-.006,2.7A1.564,1.564,0,0,0,220.046,45.286Z"/><path d="M225.068,44.648a1.239,1.239,0,0,0,.4.771,1.347,1.347,0,0,0,.952.313,1.064,1.064,0,0,0,.735-.229.708.708,0,0,0,.252-.542.635.635,0,0,0-.193-.47,1.114,1.114,0,0,0-.553-.276L225.671,44a1.884,1.884,0,0,1-1.067-.578,1.537,1.537,0,0,1-.379-1.048,1.572,1.572,0,0,1,.163-.7,1.967,1.967,0,0,1,.44-.584,2.057,2.057,0,0,1,.655-.4,2.243,2.243,0,0,1,.8-.144,2.57,2.57,0,0,1,.994.169,2.1,2.1,0,0,1,.657.415,1.831,1.831,0,0,1,.378.512,2.5,2.5,0,0,1,.175.458l-1,.373a2.464,2.464,0,0,0-.085-.277.971.971,0,0,0-.193-.319,1.084,1.084,0,0,0-.36-.259,1.324,1.324,0,0,0-.567-.108,1.011,1.011,0,0,0-.7.235.7.7,0,0,0-.265.535q0,.555.662.7l.94.205a2.152,2.152,0,0,1,1.2.62,1.64,1.64,0,0,1,.27,1.728,1.825,1.825,0,0,1-.391.578,1.889,1.889,0,0,1-.655.427,2.469,2.469,0,0,1-.94.163,2.821,2.821,0,0,1-1.03-.168,2.34,2.34,0,0,1-.71-.422,1.887,1.887,0,0,1-.434-.548,1.755,1.755,0,0,1-.187-.548Z"/><path d="M233.16,46.515V37.976h1.205v8.539Z"/><path d="M235.93,38.614a.7.7,0,0,1,.235-.524.818.818,0,0,1,.584-.222.9.9,0,0,1,.639.264,1.053,1.053,0,0,1,.277.8,2.557,2.557,0,0,1-.163.964,2.134,2.134,0,0,1-.41.662,1.712,1.712,0,0,1-.535.4,2.029,2.029,0,0,1-.554.169v-.579a1.1,1.1,0,0,0,.662-.452,1.36,1.36,0,0,0,.265-.764.2.2,0,0,1-.084.042.564.564,0,0,1-.157.018.762.762,0,0,1-.535-.2A.727.727,0,0,1,235.93,38.614Z"/><path d="M238.628,46.515V40.722h1.084v.771a1.7,1.7,0,0,1,.765-.711,2.308,2.308,0,0,1,.993-.229,2.051,2.051,0,0,1,1.019.266,1.645,1.645,0,0,1,.715.83,1.938,1.938,0,0,1,.868-.861,2.563,2.563,0,0,1,1.072-.235,2.127,2.127,0,0,1,.734.132,1.878,1.878,0,0,1,.645.4,1.952,1.952,0,0,1,.451.686,2.618,2.618,0,0,1,.168.982v3.758h-1.119V42.878a1.492,1.492,0,0,0-.295-.946,1.111,1.111,0,0,0-.934-.379,1.227,1.227,0,0,0-.968.415,1.519,1.519,0,0,0-.369,1.042v3.505h-1.131V42.878a1.514,1.514,0,0,0-.29-.946,1.1,1.1,0,0,0-.939-.379,1.254,1.254,0,0,0-.982.409,1.528,1.528,0,0,0-.367,1.06v3.493Z"/><path d="M252.635,46.575a1.55,1.55,0,0,0,.488,1.018,1.524,1.524,0,0,0,1.089.4,1.735,1.735,0,0,0,1.343-.47,2.038,2.038,0,0,0,.428-1.409v-.831a1.732,1.732,0,0,1-.663.675,2.108,2.108,0,0,1-1.108.276,2.651,2.651,0,0,1-1.066-.21,2.535,2.535,0,0,1-1.4-1.463,3.145,3.145,0,0,1-.2-1.132,3.091,3.091,0,0,1,.192-1.1,2.709,2.709,0,0,1,.543-.892,2.555,2.555,0,0,1,1.926-.824,2.345,2.345,0,0,1,1.12.24,1.541,1.541,0,0,1,.662.675v-.807h1.12v5.359a4.05,4.05,0,0,1-.144,1.078,2.4,2.4,0,0,1-.488.927,2.489,2.489,0,0,1-.9.651,3.385,3.385,0,0,1-1.373.247,3.022,3.022,0,0,1-1-.163,2.7,2.7,0,0,1-.819-.452,2.4,2.4,0,0,1-.579-.68,2.141,2.141,0,0,1-.27-.862Zm1.746-1.289a1.535,1.535,0,0,0,1.192-.506,2.214,2.214,0,0,0,0-2.7,1.535,1.535,0,0,0-1.192-.506,1.564,1.564,0,0,0-1.217.506,2.239,2.239,0,0,0-.006,2.7A1.569,1.569,0,0,0,254.381,45.286Z"/><path d="M261.4,40.541a2.976,2.976,0,0,1,1.192.235,2.91,2.91,0,0,1,.939.644,2.867,2.867,0,0,1,.615.97,3.368,3.368,0,0,1,.216,1.222,3.418,3.418,0,0,1-.216,1.229,2.841,2.841,0,0,1-.615.975,2.894,2.894,0,0,1-.939.644,3.141,3.141,0,0,1-2.384,0,2.877,2.877,0,0,1-.94-.644,2.824,2.824,0,0,1-.614-.975,3.4,3.4,0,0,1-.217-1.229,3.347,3.347,0,0,1,.217-1.222,2.85,2.85,0,0,1,.614-.97,2.893,2.893,0,0,1,.94-.644A2.973,2.973,0,0,1,261.4,40.541Zm0,5.143a1.791,1.791,0,0,0,.686-.133,1.666,1.666,0,0,0,.579-.4,1.892,1.892,0,0,0,.4-.65,2.521,2.521,0,0,0,.144-.892,2.466,2.466,0,0,0-.144-.885,1.894,1.894,0,0,0-.4-.644,1.682,1.682,0,0,0-.579-.4,1.851,1.851,0,0,0-1.373,0,1.688,1.688,0,0,0-.578.4,1.878,1.878,0,0,0-.4.644,2.488,2.488,0,0,0-.145.885,2.543,2.543,0,0,0,.145.892,1.877,1.877,0,0,0,.4.65,1.671,1.671,0,0,0,.578.4A1.792,1.792,0,0,0,261.4,45.684Z"/><path d="M268.29,40.541a2.973,2.973,0,0,1,1.192.235,2.914,2.914,0,0,1,.94.644,2.883,2.883,0,0,1,.615.97,3.368,3.368,0,0,1,.215,1.222,3.417,3.417,0,0,1-.215,1.229,2.856,2.856,0,0,1-.615.975,2.9,2.9,0,0,1-.94.644,3.138,3.138,0,0,1-2.383,0,2.867,2.867,0,0,1-.94-.644,2.826,2.826,0,0,1-.615-.975,3.4,3.4,0,0,1-.216-1.229,3.347,3.347,0,0,1,.216-1.222,2.852,2.852,0,0,1,.615-.97,2.882,2.882,0,0,1,.94-.644A2.968,2.968,0,0,1,268.29,40.541Zm0,5.143a1.784,1.784,0,0,0,.686-.133,1.657,1.657,0,0,0,.579-.4,1.91,1.91,0,0,0,.4-.65,2.544,2.544,0,0,0,.144-.892,2.488,2.488,0,0,0-.144-.885,1.911,1.911,0,0,0-.4-.644,1.673,1.673,0,0,0-.579-.4,1.849,1.849,0,0,0-1.372,0,1.679,1.679,0,0,0-.578.4,1.88,1.88,0,0,0-.4.644,2.488,2.488,0,0,0-.145.885,2.543,2.543,0,0,0,.145.892,1.879,1.879,0,0,0,.4.65,1.662,1.662,0,0,0,.578.4A1.784,1.784,0,0,0,268.29,45.684Z"/><path d="M276.756,45.636a1.883,1.883,0,0,1-.656.728,1.979,1.979,0,0,1-1.138.307,2.677,2.677,0,0,1-1.144-.235,2.516,2.516,0,0,1-.862-.65,2.971,2.971,0,0,1-.547-.976,3.681,3.681,0,0,1-.192-1.21,3.389,3.389,0,0,1,.2-1.162,3.069,3.069,0,0,1,.561-.964,2.717,2.717,0,0,1,.866-.662,2.535,2.535,0,0,1,1.121-.247,2.5,2.5,0,0,1,.681.084,1.948,1.948,0,0,1,.511.224,1.542,1.542,0,0,1,.361.312,1.383,1.383,0,0,1,.218.356V37.8h1.119v7.648q0,.421.024.71c.016.193.029.314.037.362h-1.1a2.158,2.158,0,0,1-.043-.308c-.012-.14-.018-.3-.018-.475ZM273.372,43.6a2.822,2.822,0,0,0,.115.825,1.957,1.957,0,0,0,.331.656,1.552,1.552,0,0,0,.529.434,1.607,1.607,0,0,0,.724.157,1.489,1.489,0,0,0,.7-.163,1.592,1.592,0,0,0,.531-.44,1.987,1.987,0,0,0,.331-.662,2.913,2.913,0,0,0,.114-.831,2.283,2.283,0,0,0-.439-1.457,1.477,1.477,0,0,0-1.223-.555,1.631,1.631,0,0,0-.7.151,1.566,1.566,0,0,0-.542.422,1.927,1.927,0,0,0-.343.644A2.635,2.635,0,0,0,273.372,43.6Z"/><path d="M282.429,44.961a1.736,1.736,0,0,1,.132-.692,1.51,1.51,0,0,1,.368-.524,1.835,1.835,0,0,1,.559-.35,3.208,3.208,0,0,1,.7-.192l1.566-.229a.518.518,0,0,0,.355-.157.44.44,0,0,0,.09-.276,1.017,1.017,0,0,0-.295-.73,1.284,1.284,0,0,0-.957-.306,1.237,1.237,0,0,0-.927.331,1.4,1.4,0,0,0-.387.837l-1.083-.253a2.013,2.013,0,0,1,.759-1.355,2.421,2.421,0,0,1,.728-.386,2.8,2.8,0,0,1,.886-.138,3.108,3.108,0,0,1,1.108.175,2.1,2.1,0,0,1,.747.463,1.75,1.75,0,0,1,.421.675,2.474,2.474,0,0,1,.132.807v2.9a5.864,5.864,0,0,0,.025.615,2.86,2.86,0,0,0,.048.337h-1.109c-.015-.073-.029-.169-.041-.289s-.018-.285-.018-.494a2.185,2.185,0,0,1-.253.325,1.949,1.949,0,0,1-.385.313,2.134,2.134,0,0,1-.537.235,2.459,2.459,0,0,1-.692.09,2.114,2.114,0,0,1-.8-.144,2.021,2.021,0,0,1-.609-.379,1.666,1.666,0,0,1-.391-.549A1.62,1.62,0,0,1,282.429,44.961Zm2.1.783a2.288,2.288,0,0,0,.657-.091,1.343,1.343,0,0,0,.529-.289,1.378,1.378,0,0,0,.356-.529,2.172,2.172,0,0,0,.132-.8v-.264l-1.77.264a1.191,1.191,0,0,0-.6.272.748.748,0,0,0-.242.6.82.82,0,0,0,.253.584A.917.917,0,0,0,284.524,45.744Z"/><path d="M290.607,40.722h1.252v1.024h-1.252v3.011a.856.856,0,0,0,.18.595.814.814,0,0,0,.625.2,2.351,2.351,0,0,0,.241-.012.972.972,0,0,0,.206-.036v.964a2.759,2.759,0,0,1-.278.065,2.4,2.4,0,0,1-.493.043,1.607,1.607,0,0,1-1.181-.428,1.645,1.645,0,0,1-.433-1.222V41.746h-1.108V40.722h.313a.842.842,0,0,0,.681-.253.967.967,0,0,0,.21-.638v-.94h1.037Z"/><line class="cls-5" x1="190.642" y1="57.818" x2="297.506" y2="57.818"/></svg>