<svg id="Reference_Images" data-name="Reference Images" xmlns="http://www.w3.org/2000/svg" viewBox="0 0 336 336"><defs><style>.cls-1{fill:#efe2ab;}.cls-2{fill:#a4dde0;}.cls-3{fill:#9fce9f;}.cls-4{fill:#efefef;}.cls-5{fill:none;stroke:#000;stroke-linecap:round;stroke-miterlimit:10;stroke-width:0.5px;}</style></defs><title>Diagram_1.3</title><circle class="cls-1" cx="116.226" cy="219.92" r="115.968"/><circle class="cls-2" cx="219.723" cy="219.92" r="115.968"/><path class="cls-3" d="M232.194,220.174a115.964,115.964,0,0,0-64.22-104.055,116,116,0,0,0,0,207.6A115.962,115.962,0,0,0,232.194,220.174Z"/><path d="M150.88,205.588a1.9,1.9,0,0,1,.5.054,1.1,1.1,0,0,1,.229.077v1.1a.873.873,0,0,0-.177-.052,1.9,1.9,0,0,0-.36-.026,1.312,1.312,0,0,0-.333.046.905.905,0,0,0-.327.163.834.834,0,0,0-.242.321,1.284,1.284,0,0,0-.091.53v1.007h4.16V215.1h-1.217V209.92h-2.943V215.1h-1.27V209.92h-1.164v-1.113h1.164v-1.059a2.493,2.493,0,0,1,.163-.93,2,2,0,0,1,.445-.68,1.834,1.834,0,0,1,.654-.412A2.307,2.307,0,0,1,150.88,205.588Zm1.871.812a.859.859,0,0,1,.256-.635.847.847,0,0,1,.621-.254.868.868,0,0,1,.889.889.847.847,0,0,1-.254.621.859.859,0,0,1-.635.256.874.874,0,0,1-.877-.877Z"/><path d="M157.566,215.1h-1.23v-6.294h1.2v.9a1.983,1.983,0,0,1,.864-.837,2.466,2.466,0,0,1,1.072-.249,2.425,2.425,0,0,1,.988.189,1.967,1.967,0,0,1,.707.524,2.213,2.213,0,0,1,.419.791,3.427,3.427,0,0,1,.137.982V215.1H160.5V211.32a2.537,2.537,0,0,0-.072-.616,1.283,1.283,0,0,0-.248-.5,1.23,1.23,0,0,0-.458-.341,1.722,1.722,0,0,0-.687-.123,1.408,1.408,0,0,0-.641.137,1.317,1.317,0,0,0-.459.373,1.647,1.647,0,0,0-.275.549,2.417,2.417,0,0,0-.091.668Z"/><path d="M168.1,214.146a2.041,2.041,0,0,1-.712.791,2.158,2.158,0,0,1-1.237.333,2.922,2.922,0,0,1-1.243-.254,2.748,2.748,0,0,1-.936-.707,3.256,3.256,0,0,1-.595-1.06,4.028,4.028,0,0,1-.209-1.315,3.656,3.656,0,0,1,.217-1.263,3.267,3.267,0,0,1,.608-1.046,2.972,2.972,0,0,1,.942-.72,2.951,2.951,0,0,1,1.956-.177,2.166,2.166,0,0,1,.556.243,1.727,1.727,0,0,1,.393.34,1.455,1.455,0,0,1,.235.386v-4.069h1.217v8.308q0,.459.025.772c.017.21.031.341.04.393h-1.191a2.154,2.154,0,0,1-.045-.334c-.014-.153-.021-.325-.021-.517Zm-3.676-2.212a3.092,3.092,0,0,0,.124.9,2.16,2.16,0,0,0,.36.712,1.7,1.7,0,0,0,.576.472,1.737,1.737,0,0,0,.785.17,1.621,1.621,0,0,0,.759-.177,1.715,1.715,0,0,0,.575-.478,2.112,2.112,0,0,0,.36-.719,3.153,3.153,0,0,0,.125-.9,2.482,2.482,0,0,0-.477-1.583,1.605,1.605,0,0,0-1.329-.6,1.775,1.775,0,0,0-.766.164,1.667,1.667,0,0,0-.587.458,2.1,2.1,0,0,0-.374.7A2.87,2.87,0,0,0,164.422,211.934Z"/><path d="M171.109,206.426a.863.863,0,0,1,.254-.634.844.844,0,0,1,.622-.256.875.875,0,0,1,.89.89.841.841,0,0,1-.256.621.861.861,0,0,1-.634.256.871.871,0,0,1-.876-.877Zm.274,8.675v-6.294H172.6V215.1Z"/><path d="M175.922,215.1h-1.23v-6.294h1.2v.9a1.981,1.981,0,0,1,.863-.837,2.466,2.466,0,0,1,1.072-.249,2.433,2.433,0,0,1,.989.189,1.976,1.976,0,0,1,.707.524,2.212,2.212,0,0,1,.418.791,3.393,3.393,0,0,1,.137.982V215.1h-1.229V211.32a2.537,2.537,0,0,0-.073-.616,1.283,1.283,0,0,0-.248-.5,1.214,1.214,0,0,0-.458-.341,1.715,1.715,0,0,0-.687-.123,1.414,1.414,0,0,0-.641.137,1.3,1.3,0,0,0-.458.373,1.628,1.628,0,0,0-.275.549,2.38,2.38,0,0,0-.092.668Z"/><path d="M182.778,215.166a1.7,1.7,0,0,0,.531,1.106,1.655,1.655,0,0,0,1.184.438,1.884,1.884,0,0,0,1.458-.51,2.209,2.209,0,0,0,.464-1.531v-.9a1.863,1.863,0,0,1-.718.733,2.291,2.291,0,0,1-1.2.3,2.88,2.88,0,0,1-1.158-.229,2.753,2.753,0,0,1-1.518-1.59,3.571,3.571,0,0,1-.007-2.427,2.964,2.964,0,0,1,.589-.969,2.787,2.787,0,0,1,2.094-.9,2.547,2.547,0,0,1,1.217.261,1.668,1.668,0,0,1,.719.733v-.877h1.217v5.822a4.4,4.4,0,0,1-.157,1.171,2.592,2.592,0,0,1-.53,1.008,2.686,2.686,0,0,1-.975.707,3.658,3.658,0,0,1-1.491.268,3.3,3.3,0,0,1-1.093-.177,2.929,2.929,0,0,1-.889-.491,2.582,2.582,0,0,1-.628-.739,2.343,2.343,0,0,1-.3-.935Zm1.9-1.4a1.664,1.664,0,0,0,1.3-.55,2.4,2.4,0,0,0,0-2.93,1.666,1.666,0,0,0-1.3-.549,1.7,1.7,0,0,0-1.322.549,2.43,2.43,0,0,0-.006,2.937A1.7,1.7,0,0,0,184.676,213.766Z"/><path d="M143.194,228.773a1.343,1.343,0,0,0,.431.837,1.464,1.464,0,0,0,1.034.341,1.149,1.149,0,0,0,.8-.249.766.766,0,0,0,.275-.589.694.694,0,0,0-.21-.51,1.23,1.23,0,0,0-.6-.3l-1.074-.236a2.038,2.038,0,0,1-1.157-.628,1.667,1.667,0,0,1-.412-1.138,1.718,1.718,0,0,1,.177-.766,2.117,2.117,0,0,1,.477-.634,2.193,2.193,0,0,1,.713-.431,2.415,2.415,0,0,1,.87-.158,2.833,2.833,0,0,1,1.08.183,2.286,2.286,0,0,1,.712.452,1.969,1.969,0,0,1,.412.557,2.689,2.689,0,0,1,.191.5l-1.086.4a2.845,2.845,0,0,0-.092-.3,1.09,1.09,0,0,0-.21-.347,1.192,1.192,0,0,0-.393-.281,1.418,1.418,0,0,0-.614-.118,1.1,1.1,0,0,0-.759.255.763.763,0,0,0-.288.583c0,.4.24.653.72.759l1.02.221a2.343,2.343,0,0,1,1.3.674,1.793,1.793,0,0,1,.294,1.879,2.025,2.025,0,0,1-.425.627,2.071,2.071,0,0,1-.713.465,2.7,2.7,0,0,1-1.02.177,3.075,3.075,0,0,1-1.119-.183,2.581,2.581,0,0,1-.772-.459,2.063,2.063,0,0,1-.471-.595,1.949,1.949,0,0,1-.2-.6Z"/><path d="M151.213,224.311a3.213,3.213,0,0,1,1.3.256,3.087,3.087,0,0,1,1.688,1.753,3.67,3.67,0,0,1,.235,1.328,3.722,3.722,0,0,1-.235,1.334,3.109,3.109,0,0,1-.668,1.061,3.152,3.152,0,0,1-1.02.7,3.4,3.4,0,0,1-2.59,0,3.145,3.145,0,0,1-1.021-.7,3.109,3.109,0,0,1-.668-1.061,3.7,3.7,0,0,1-.235-1.334,3.649,3.649,0,0,1,.235-1.328,3.085,3.085,0,0,1,1.689-1.753A3.2,3.2,0,0,1,151.213,224.311Zm0,5.587a1.967,1.967,0,0,0,.747-.144,1.8,1.8,0,0,0,.627-.431,2.048,2.048,0,0,0,.432-.707,2.741,2.741,0,0,0,.157-.968,2.682,2.682,0,0,0-.157-.961,2.069,2.069,0,0,0-.432-.7,1.8,1.8,0,0,0-.627-.431,2,2,0,0,0-1.492,0,1.8,1.8,0,0,0-.628.431,2.085,2.085,0,0,0-.432.7,2.682,2.682,0,0,0-.157.961,2.741,2.741,0,0,0,.157.968,2.064,2.064,0,0,0,.432.707,1.8,1.8,0,0,0,.628.431A1.953,1.953,0,0,0,151.213,229.9Z"/><path d="M156,230.8v-9.472h1.229V230.8Z"/><path d="M163.408,230.043a1.572,1.572,0,0,1-.786.726,2.656,2.656,0,0,1-1.072.229,2.391,2.391,0,0,1-.988-.2,2.114,2.114,0,0,1-.739-.537,2.4,2.4,0,0,1-.465-.8,2.942,2.942,0,0,1-.163-1v-3.964h1.23v3.781a2.383,2.383,0,0,0,.078.622,1.474,1.474,0,0,0,.249.516,1.207,1.207,0,0,0,.438.354,1.5,1.5,0,0,0,.66.131,1.379,1.379,0,0,0,1.119-.445,1.752,1.752,0,0,0,.373-1.165v-3.794h1.23v5.129c0,.252.006.481.02.687s.028.364.046.477H163.46a1.854,1.854,0,0,1-.039-.333C163.412,230.315,163.408,230.173,163.408,230.043Z"/><path d="M168.315,224.508h1.36v1.112h-1.36v3.271a.937.937,0,0,0,.195.647.887.887,0,0,0,.681.216c.079,0,.165,0,.262-.013a.965.965,0,0,0,.222-.039v1.047c-.053.018-.153.041-.3.072a2.74,2.74,0,0,1-.537.046,1.745,1.745,0,0,1-1.282-.466,1.776,1.776,0,0,1-.47-1.327V225.62h-1.2v-1.112h.339a.912.912,0,0,0,.74-.275,1.05,1.05,0,0,0,.229-.694v-1.02h1.126Z"/><path d="M171.035,222.126a.859.859,0,0,1,.256-.634.844.844,0,0,1,.621-.255.87.87,0,0,1,.889.889.849.849,0,0,1-.254.622.863.863,0,0,1-.635.256.874.874,0,0,1-.877-.878Zm.275,8.675v-6.293h1.217V230.8Z"/><path d="M177.315,224.311a3.213,3.213,0,0,1,1.3.256,3.162,3.162,0,0,1,1.02.7,3.125,3.125,0,0,1,.667,1.054,3.649,3.649,0,0,1,.236,1.328,3.7,3.7,0,0,1-.236,1.334,3.107,3.107,0,0,1-.667,1.061,3.162,3.162,0,0,1-1.02.7,3.406,3.406,0,0,1-2.591,0,3.156,3.156,0,0,1-1.021-.7,3.107,3.107,0,0,1-.667-1.061,3.7,3.7,0,0,1-.236-1.334,3.649,3.649,0,0,1,.236-1.328,3.079,3.079,0,0,1,1.688-1.753A3.205,3.205,0,0,1,177.315,224.311Zm0,5.587a1.958,1.958,0,0,0,.746-.144,1.8,1.8,0,0,0,.628-.431,2.064,2.064,0,0,0,.432-.707,2.764,2.764,0,0,0,.156-.968,2.7,2.7,0,0,0-.156-.961,2.085,2.085,0,0,0-.432-.7,1.8,1.8,0,0,0-.628-.431,2,2,0,0,0-1.491,0,1.8,1.8,0,0,0-.629.431,2.1,2.1,0,0,0-.432.7,2.7,2.7,0,0,0-.156.961,2.764,2.764,0,0,0,.156.968,2.079,2.079,0,0,0,.432.707,1.8,1.8,0,0,0,.629.431A1.95,1.95,0,0,0,177.315,229.9Z"/><path d="M183.333,230.8H182.1v-6.293h1.2v.9a1.991,1.991,0,0,1,.864-.838,2.479,2.479,0,0,1,1.072-.248,2.409,2.409,0,0,1,.988.189,1.956,1.956,0,0,1,.707.523,2.194,2.194,0,0,1,.419.792,3.425,3.425,0,0,1,.137.981V230.8h-1.23V227.02a2.543,2.543,0,0,0-.072-.616,1.29,1.29,0,0,0-.248-.5,1.22,1.22,0,0,0-.458-.34,1.7,1.7,0,0,0-.687-.124,1.408,1.408,0,0,0-.641.137,1.317,1.317,0,0,0-.459.373,1.645,1.645,0,0,0-.274.549,2.38,2.38,0,0,0-.092.668Z"/><path d="M189.98,228.773a1.349,1.349,0,0,0,.432.837,1.459,1.459,0,0,0,1.033.341,1.15,1.15,0,0,0,.8-.249.769.769,0,0,0,.275-.589.7.7,0,0,0-.21-.51,1.238,1.238,0,0,0-.6-.3l-1.073-.236a2.034,2.034,0,0,1-1.157-.628,1.667,1.667,0,0,1-.412-1.138,1.718,1.718,0,0,1,.176-.766,2.117,2.117,0,0,1,.477-.634,2.209,2.209,0,0,1,.714-.431,2.411,2.411,0,0,1,.87-.158,2.824,2.824,0,0,1,1.079.183,2.279,2.279,0,0,1,.713.452,1.989,1.989,0,0,1,.412.557,2.749,2.749,0,0,1,.19.5l-1.086.4a3.054,3.054,0,0,0-.091-.3,1.09,1.09,0,0,0-.21-.347,1.2,1.2,0,0,0-.393-.281,1.418,1.418,0,0,0-.614-.118,1.1,1.1,0,0,0-.759.255.763.763,0,0,0-.288.583c0,.4.24.653.72.759l1.02.221a2.346,2.346,0,0,1,1.3.674,1.793,1.793,0,0,1,.294,1.879,2.043,2.043,0,0,1-.425.627,2.081,2.081,0,0,1-.713.465,2.7,2.7,0,0,1-1.02.177,3.071,3.071,0,0,1-1.119-.183,2.569,2.569,0,0,1-.772-.459,2.046,2.046,0,0,1-.471-.595,1.9,1.9,0,0,1-.2-.6Z"/><path d="M32.583,207.146v-6.294h1.178v.838a1.847,1.847,0,0,1,.83-.772,2.52,2.52,0,0,1,1.08-.249,2.228,2.228,0,0,1,1.106.289,1.8,1.8,0,0,1,.779.9,2.091,2.091,0,0,1,.941-.935,2.783,2.783,0,0,1,1.165-.256,2.3,2.3,0,0,1,.8.144,2.037,2.037,0,0,1,.7.439,2.121,2.121,0,0,1,.49.745,2.853,2.853,0,0,1,.183,1.067v4.082H40.618V203.2a1.624,1.624,0,0,0-.322-1.028,1.2,1.2,0,0,0-1.013-.412,1.331,1.331,0,0,0-1.053.452,1.641,1.641,0,0,0-.4,1.131v3.808H36.6V203.2a1.651,1.651,0,0,0-.315-1.028,1.2,1.2,0,0,0-1.02-.412,1.36,1.36,0,0,0-1.066.445,1.654,1.654,0,0,0-.4,1.151v3.795Z"/><path d="M43.4,205.458a1.878,1.878,0,0,1,.144-.752,1.653,1.653,0,0,1,.4-.569,1.984,1.984,0,0,1,.608-.38,3.511,3.511,0,0,1,.76-.209l1.7-.249a.554.554,0,0,0,.386-.17.491.491,0,0,0,.1-.3,1.109,1.109,0,0,0-.32-.792,1.393,1.393,0,0,0-1.04-.333,1.35,1.35,0,0,0-1.008.36,1.508,1.508,0,0,0-.418.909l-1.178-.275a2.124,2.124,0,0,1,.269-.824,2.2,2.2,0,0,1,.555-.648,2.606,2.606,0,0,1,.793-.419,3.016,3.016,0,0,1,.96-.15,3.369,3.369,0,0,1,1.2.19,2.3,2.3,0,0,1,.812.5,1.892,1.892,0,0,1,.457.732,2.684,2.684,0,0,1,.144.877v3.153q0,.418.026.668c.018.165.036.287.053.366h-1.2a2.622,2.622,0,0,1-.047-.314c-.013-.131-.019-.31-.019-.537a2.353,2.353,0,0,1-.275.354,2.051,2.051,0,0,1-.419.339,2.269,2.269,0,0,1-.582.256,2.674,2.674,0,0,1-.751.1,2.284,2.284,0,0,1-.871-.157,2.16,2.16,0,0,1-.661-.412,1.8,1.8,0,0,1-.426-.6A1.758,1.758,0,0,1,43.4,205.458Zm2.277.85a2.485,2.485,0,0,0,.712-.1,1.471,1.471,0,0,0,.577-.314,1.5,1.5,0,0,0,.386-.575,2.35,2.35,0,0,0,.143-.871v-.287l-1.924.287a1.311,1.311,0,0,0-.653.3.811.811,0,0,0-.262.647.885.885,0,0,0,.274.635A1,1,0,0,0,45.681,206.308Z"/><path d="M53.6,203.509l2.736,3.637H54.788l-2.055-2.774-.877.877v1.9H50.639v-9.473h1.217v5.967l2.721-2.788h1.7Z"/><path d="M57.233,198.471a.864.864,0,0,1,.255-.634.848.848,0,0,1,.622-.256.875.875,0,0,1,.89.89.841.841,0,0,1-.256.621.857.857,0,0,1-.634.256.872.872,0,0,1-.877-.877Zm.275,8.675v-6.294h1.217v6.294Z"/><path d="M62.047,207.146H60.819v-6.294h1.2v.9a1.981,1.981,0,0,1,.863-.837,2.466,2.466,0,0,1,1.072-.249,2.417,2.417,0,0,1,.989.19,1.944,1.944,0,0,1,.707.524,2.195,2.195,0,0,1,.418.791,3.381,3.381,0,0,1,.137.981v3.991H64.979v-3.781a2.573,2.573,0,0,0-.072-.615,1.3,1.3,0,0,0-.249-.5,1.206,1.206,0,0,0-.458-.341,1.712,1.712,0,0,0-.687-.123,1.43,1.43,0,0,0-.641.137,1.313,1.313,0,0,0-.458.373,1.628,1.628,0,0,0-.275.549,2.385,2.385,0,0,0-.092.668Z"/><path d="M68.9,207.211a1.69,1.69,0,0,0,.531,1.106,1.652,1.652,0,0,0,1.184.438,1.884,1.884,0,0,0,1.458-.51,2.214,2.214,0,0,0,.465-1.531v-.9a1.883,1.883,0,0,1-.72.733,2.281,2.281,0,0,1-1.2.3,2.885,2.885,0,0,1-1.159-.229,2.81,2.81,0,0,1-.916-.628,2.847,2.847,0,0,1-.6-.962,3.425,3.425,0,0,1-.215-1.23,3.374,3.374,0,0,1,.208-1.2,2.963,2.963,0,0,1,.59-.969,2.783,2.783,0,0,1,2.094-.9,2.545,2.545,0,0,1,1.216.261,1.676,1.676,0,0,1,.719.734v-.878h1.217v5.822a4.411,4.411,0,0,1-.156,1.172,2.621,2.621,0,0,1-.53,1.007,2.7,2.7,0,0,1-.976.707,3.653,3.653,0,0,1-1.49.268,3.267,3.267,0,0,1-1.093-.177,2.953,2.953,0,0,1-.89-.49,2.626,2.626,0,0,1-.628-.739,2.336,2.336,0,0,1-.294-.936Zm1.9-1.4a1.663,1.663,0,0,0,1.294-.55,2.4,2.4,0,0,0,0-2.93,1.665,1.665,0,0,0-1.294-.549,1.7,1.7,0,0,0-1.323.549,2.434,2.434,0,0,0-.006,2.937A1.7,1.7,0,0,0,70.8,205.811Z"/><path d="M21.352,217.8a3.819,3.819,0,0,0-.537-.04,1.751,1.751,0,0,0-1.25.452,1.973,1.973,0,0,0-.477,1.485v3.153h-1.23v-6.293h1.2v1.1a2.055,2.055,0,0,1,.4-.595,2.125,2.125,0,0,1,.477-.366,1.744,1.744,0,0,1,.511-.19,2.533,2.533,0,0,1,.5-.053,2.015,2.015,0,0,1,.243.014,1.515,1.515,0,0,1,.164.025Z"/><path d="M26.873,222.088a1.582,1.582,0,0,1-.785.726,2.665,2.665,0,0,1-1.073.229,2.391,2.391,0,0,1-.988-.2,2.123,2.123,0,0,1-.739-.537,2.389,2.389,0,0,1-.464-.8,2.918,2.918,0,0,1-.164-1v-3.964h1.229v3.781a2.426,2.426,0,0,0,.079.622,1.455,1.455,0,0,0,.248.516,1.209,1.209,0,0,0,.439.354,1.5,1.5,0,0,0,.66.131,1.378,1.378,0,0,0,1.119-.445,1.758,1.758,0,0,0,.374-1.165v-3.794h1.229v5.129c0,.253.006.481.02.687s.029.364.046.477H26.925a1.952,1.952,0,0,1-.039-.333C26.877,222.36,26.873,222.218,26.873,222.088Z"/><path d="M30.13,222.846v-9.472h1.218v4.068a1.992,1.992,0,0,1,.758-.745,2.5,2.5,0,0,1,1.322-.327,2.9,2.9,0,0,1,1.256.255,2.554,2.554,0,0,1,.9.707,3.02,3.02,0,0,1,.549,1.053,4.315,4.315,0,0,1,.184,1.282,4.228,4.228,0,0,1-.2,1.315,3.14,3.14,0,0,1-.568,1.06,2.689,2.689,0,0,1-.916.712,2.839,2.839,0,0,1-1.25.262,2.481,2.481,0,0,1-1.222-.287,2.135,2.135,0,0,1-.818-.8v.916Zm4.933-3.179a2.439,2.439,0,0,0-.5-1.616,1.679,1.679,0,0,0-1.361-.595,1.793,1.793,0,0,0-.752.157,1.741,1.741,0,0,0-.6.438,1.985,1.985,0,0,0-.385.693,2.9,2.9,0,0,0-.138.923,2.956,2.956,0,0,0,.138.929,2.1,2.1,0,0,0,.385.712,1.658,1.658,0,0,0,.6.452,1.793,1.793,0,0,0,.752.157,1.661,1.661,0,0,0,1.354-.615A2.494,2.494,0,0,0,35.063,219.667Z"/><path d="M37.889,222.846v-9.472h1.217v4.068a2,2,0,0,1,.758-.745,2.5,2.5,0,0,1,1.322-.327,2.9,2.9,0,0,1,1.257.255,2.554,2.554,0,0,1,.9.707,3.054,3.054,0,0,1,.549,1.053,4.347,4.347,0,0,1,.184,1.282,4.258,4.258,0,0,1-.2,1.315,3.177,3.177,0,0,1-.569,1.06,2.679,2.679,0,0,1-.916.712,2.835,2.835,0,0,1-1.249.262,2.482,2.482,0,0,1-1.223-.287,2.135,2.135,0,0,1-.818-.8v.916Zm4.933-3.179a2.439,2.439,0,0,0-.5-1.616,1.677,1.677,0,0,0-1.361-.595,1.793,1.793,0,0,0-.752.157,1.737,1.737,0,0,0-.595.438,2,2,0,0,0-.387.693,2.93,2.93,0,0,0-.136.923,2.986,2.986,0,0,0,.136.929,2.117,2.117,0,0,0,.387.712,1.654,1.654,0,0,0,.595.452,1.793,1.793,0,0,0,.752.157,1.658,1.658,0,0,0,1.354-.615A2.494,2.494,0,0,0,42.822,219.667Z"/><path d="M51.129,221.054a2.744,2.744,0,0,1-.385.778,2.8,2.8,0,0,1-.616.629,2.956,2.956,0,0,1-.817.424,3.08,3.08,0,0,1-1.008.158,3.313,3.313,0,0,1-1.2-.223,2.956,2.956,0,0,1-1.015-.654,3.121,3.121,0,0,1-.693-1.06,3.761,3.761,0,0,1-.255-1.426,3.545,3.545,0,0,1,.249-1.354,3.364,3.364,0,0,1,.66-1.047,2.924,2.924,0,0,1,.963-.68,2.781,2.781,0,0,1,1.137-.243,3.256,3.256,0,0,1,1.289.243,2.579,2.579,0,0,1,.949.674,2.962,2.962,0,0,1,.581,1.039,4.175,4.175,0,0,1,.2,1.342c0,.079,0,.152-.007.222a1.6,1.6,0,0,1-.02.171H46.406a2.2,2.2,0,0,0,.158.772,1.8,1.8,0,0,0,.4.608,1.755,1.755,0,0,0,.6.393,1.993,1.993,0,0,0,.739.137,1.706,1.706,0,0,0,1.178-.366,2.136,2.136,0,0,0,.589-.9Zm-1.242-2a1.723,1.723,0,0,0-.458-1.144,1.65,1.65,0,0,0-1.269-.466,1.688,1.688,0,0,0-.7.138,1.619,1.619,0,0,0-.524.366,1.877,1.877,0,0,0-.347.517,1.587,1.587,0,0,0-.144.589Z"/><path d="M56.232,217.8a3.83,3.83,0,0,0-.537-.04,1.748,1.748,0,0,0-1.249.452,1.973,1.973,0,0,0-.478,1.485v3.153H52.739v-6.293h1.2v1.1a2.037,2.037,0,0,1,.4-.595,2.13,2.13,0,0,1,.478-.366,1.712,1.712,0,0,1,.509-.19,2.529,2.529,0,0,1,.5-.053,2.023,2.023,0,0,1,.242.014,1.529,1.529,0,0,1,.163.025Z"/><path d="M60.811,222.846v-9.472h1.217v4.068a2,2,0,0,1,.758-.745,2.5,2.5,0,0,1,1.323-.327,2.9,2.9,0,0,1,1.256.255,2.554,2.554,0,0,1,.9.707,3.054,3.054,0,0,1,.549,1.053A4.347,4.347,0,0,1,67,219.667a4.288,4.288,0,0,1-.2,1.315,3.179,3.179,0,0,1-.57,1.06,2.679,2.679,0,0,1-.916.712,2.835,2.835,0,0,1-1.249.262,2.485,2.485,0,0,1-1.223-.287,2.135,2.135,0,0,1-.818-.8v.916Zm4.933-3.179a2.439,2.439,0,0,0-.5-1.616,1.676,1.676,0,0,0-1.361-.595,1.8,1.8,0,0,0-.752.157,1.737,1.737,0,0,0-.6.438,1.987,1.987,0,0,0-.386.693,2.9,2.9,0,0,0-.137.923,2.957,2.957,0,0,0,.137.929,2.1,2.1,0,0,0,.386.712,1.654,1.654,0,0,0,.6.452,1.8,1.8,0,0,0,.752.157,1.657,1.657,0,0,0,1.354-.615A2.494,2.494,0,0,0,65.744,219.667Z"/><path d="M68.177,221.158a1.87,1.87,0,0,1,.144-.751,1.648,1.648,0,0,1,.4-.57,1.989,1.989,0,0,1,.608-.379,3.5,3.5,0,0,1,.759-.21l1.7-.248a.567.567,0,0,0,.386-.17.494.494,0,0,0,.1-.3,1.108,1.108,0,0,0-.32-.791,1.394,1.394,0,0,0-1.041-.334,1.348,1.348,0,0,0-1.007.36,1.505,1.505,0,0,0-.418.909l-1.178-.275a2.15,2.15,0,0,1,.268-.824,2.215,2.215,0,0,1,.556-.647,2.591,2.591,0,0,1,.792-.419,3.027,3.027,0,0,1,.961-.151,3.372,3.372,0,0,1,1.2.191,2.258,2.258,0,0,1,.811.5,1.9,1.9,0,0,1,.458.733,2.673,2.673,0,0,1,.144.876v3.153q0,.42.025.668t.054.366h-1.2a2.245,2.245,0,0,1-.047-.314c-.013-.131-.019-.309-.019-.536a2.416,2.416,0,0,1-.275.353,2.1,2.1,0,0,1-.42.34,2.277,2.277,0,0,1-.581.255,2.644,2.644,0,0,1-.752.1,2.291,2.291,0,0,1-.871-.158,2.118,2.118,0,0,1-.66-.412,1.792,1.792,0,0,1-.426-.6A1.763,1.763,0,0,1,68.177,221.158Zm2.277.851a2.526,2.526,0,0,0,.712-.1,1.41,1.41,0,0,0,.962-.89,2.344,2.344,0,0,0,.144-.87v-.287l-1.924.287a1.3,1.3,0,0,0-.654.294.818.818,0,0,0-.262.648.886.886,0,0,0,.275.635A1,1,0,0,0,70.454,222.009Z"/><path d="M76.642,222.846h-1.23v-6.293h1.2v.9a2,2,0,0,1,.865-.838,2.479,2.479,0,0,1,1.072-.248,2.4,2.4,0,0,1,.988.19,1.939,1.939,0,0,1,.706.522,2.192,2.192,0,0,1,.42.793,3.414,3.414,0,0,1,.136.98v3.991H79.573v-3.781a2.529,2.529,0,0,0-.072-.615,1.276,1.276,0,0,0-.249-.5,1.212,1.212,0,0,0-.458-.34,1.7,1.7,0,0,0-.686-.124,1.408,1.408,0,0,0-.641.137,1.328,1.328,0,0,0-.459.373,1.628,1.628,0,0,0-.275.549,2.417,2.417,0,0,0-.091.668Z"/><path d="M87.175,221.891a2.047,2.047,0,0,1-.713.792,2.151,2.151,0,0,1-1.237.333,2.923,2.923,0,0,1-1.243-.255,2.746,2.746,0,0,1-.936-.706,3.243,3.243,0,0,1-.6-1.061,4.018,4.018,0,0,1-.21-1.314,3.647,3.647,0,0,1,.218-1.262,3.238,3.238,0,0,1,.607-1.047,2.961,2.961,0,0,1,.943-.72,2.948,2.948,0,0,1,1.955-.177,2.1,2.1,0,0,1,.556.242,1.715,1.715,0,0,1,.394.341,1.435,1.435,0,0,1,.234.385v-4.068h1.218v8.308q0,.458.026.772c.017.209.029.34.038.392H87.239a2.453,2.453,0,0,1-.044-.333c-.014-.153-.02-.325-.02-.517ZM83.5,219.68a3.085,3.085,0,0,0,.124.9,2.146,2.146,0,0,0,.36.713,1.651,1.651,0,0,0,.576.471,1.721,1.721,0,0,0,.785.17,1.623,1.623,0,0,0,.759-.176,1.747,1.747,0,0,0,.575-.478,2.13,2.13,0,0,0,.36-.719,3.158,3.158,0,0,0,.125-.9,2.474,2.474,0,0,0-.478-1.583,1.6,1.6,0,0,0-1.328-.6,1.774,1.774,0,0,0-.766.163,1.65,1.65,0,0,0-.587.459,2.091,2.091,0,0,0-.374.7A2.9,2.9,0,0,0,83.5,219.68Z"/><path d="M40.806,238.612a1.7,1.7,0,0,0,.531,1.106,1.653,1.653,0,0,0,1.184.438,1.884,1.884,0,0,0,1.458-.51,2.21,2.21,0,0,0,.465-1.531v-.9a1.873,1.873,0,0,1-.719.733,2.291,2.291,0,0,1-1.2.3,2.88,2.88,0,0,1-1.158-.229,2.753,2.753,0,0,1-1.518-1.59,3.4,3.4,0,0,1-.216-1.23,3.362,3.362,0,0,1,.209-1.2,2.964,2.964,0,0,1,.589-.969,2.787,2.787,0,0,1,2.094-.9,2.55,2.55,0,0,1,1.217.261,1.674,1.674,0,0,1,.719.733v-.877h1.216v5.822a4.4,4.4,0,0,1-.156,1.171,2.618,2.618,0,0,1-.53,1.008,2.686,2.686,0,0,1-.975.707,3.658,3.658,0,0,1-1.491.268,3.3,3.3,0,0,1-1.093-.177,2.929,2.929,0,0,1-.889-.491,2.582,2.582,0,0,1-.628-.739,2.343,2.343,0,0,1-.3-.935Zm1.9-1.4a1.669,1.669,0,0,0,1.3-.55,2.412,2.412,0,0,0,0-2.93,1.671,1.671,0,0,0-1.3-.549,1.7,1.7,0,0,0-1.322.549,2.43,2.43,0,0,0-.006,2.937A1.7,1.7,0,0,0,42.7,237.212Z"/><path d="M51.719,237.788a1.572,1.572,0,0,1-.786.726,2.665,2.665,0,0,1-1.073.229,2.394,2.394,0,0,1-.988-.2,2.145,2.145,0,0,1-.739-.537,2.414,2.414,0,0,1-.464-.8,2.938,2.938,0,0,1-.164-.995v-3.964h1.231v3.781a2.377,2.377,0,0,0,.078.622,1.468,1.468,0,0,0,.248.517,1.213,1.213,0,0,0,.438.353,1.506,1.506,0,0,0,.661.131,1.376,1.376,0,0,0,1.119-.445,1.754,1.754,0,0,0,.373-1.164v-3.8h1.23v5.129c0,.253.006.482.02.687s.028.364.045.478H51.77a1.991,1.991,0,0,1-.038-.334C51.723,238.06,51.719,237.919,51.719,237.788Z"/><path d="M56.206,238.547h-1.23v-6.294h1.2v.9a1.981,1.981,0,0,1,.863-.837,2.474,2.474,0,0,1,1.073-.249,2.429,2.429,0,0,1,.988.189,1.967,1.967,0,0,1,.707.524,2.2,2.2,0,0,1,.418.791,3.427,3.427,0,0,1,.138.982v3.991H59.136v-3.781a2.524,2.524,0,0,0-.071-.615,1.281,1.281,0,0,0-.248-.5,1.222,1.222,0,0,0-.458-.341,1.721,1.721,0,0,0-.688-.123,1.411,1.411,0,0,0-.641.137,1.322,1.322,0,0,0-.458.373,1.627,1.627,0,0,0-.274.549,2.344,2.344,0,0,0-.092.668Z"/><path d="M62.852,236.519a1.359,1.359,0,0,0,.432.838,1.468,1.468,0,0,0,1.034.339,1.154,1.154,0,0,0,.8-.248.771.771,0,0,0,.275-.589.7.7,0,0,0-.209-.511,1.237,1.237,0,0,0-.6-.3l-1.072-.235a2.047,2.047,0,0,1-1.157-.629,1.669,1.669,0,0,1-.413-1.138,1.721,1.721,0,0,1,.176-.765,2.112,2.112,0,0,1,.478-.635,2.224,2.224,0,0,1,.713-.432,2.415,2.415,0,0,1,.871-.157,2.809,2.809,0,0,1,1.079.183,2.273,2.273,0,0,1,.713.452,1.985,1.985,0,0,1,.412.556,2.663,2.663,0,0,1,.189.5l-1.086.406a2.487,2.487,0,0,0-.091-.3,1.065,1.065,0,0,0-.209-.346,1.184,1.184,0,0,0-.393-.281,1.422,1.422,0,0,0-.614-.118,1.1,1.1,0,0,0-.76.255.763.763,0,0,0-.288.582c0,.4.241.655.72.759l1.021.222a2.352,2.352,0,0,1,1.3.674,1.792,1.792,0,0,1,.294,1.878,2.033,2.033,0,0,1-.426.628,2.074,2.074,0,0,1-.712.464,2.69,2.69,0,0,1-1.021.177,3.044,3.044,0,0,1-1.118-.183,2.567,2.567,0,0,1-.772-.458,2.05,2.05,0,0,1-.472-.595,1.893,1.893,0,0,1-.2-.6Z"/><path d="M255.016,222.107v-8.779h1.19v.981a2.189,2.189,0,0,1,.8-.8,2.468,2.468,0,0,1,1.308-.327,2.891,2.891,0,0,1,1.249.255,2.509,2.509,0,0,1,.9.7,3.158,3.158,0,0,1,.55,1.047,4.252,4.252,0,0,1,.19,1.282,4.2,4.2,0,0,1-.2,1.309,3.133,3.133,0,0,1-.575,1.053,2.688,2.688,0,0,1-.923.706,2.875,2.875,0,0,1-1.236.255,2.474,2.474,0,0,1-1.256-.3,2.176,2.176,0,0,1-.785-.719v3.336Zm4.933-5.639a2.784,2.784,0,0,0-.131-.87,2.217,2.217,0,0,0-.366-.694,1.709,1.709,0,0,0-.583-.464,1.75,1.75,0,0,0-.778-.171,1.722,1.722,0,0,0-.766.171,1.833,1.833,0,0,0-.595.464,2.036,2.036,0,0,0-.379.694,2.784,2.784,0,0,0-.131.87,2.96,2.96,0,0,0,.131.9,2.012,2.012,0,0,0,.379.706,1.833,1.833,0,0,0,2.133.457,1.7,1.7,0,0,0,.582-.457,2.1,2.1,0,0,0,.373-.706A2.96,2.96,0,0,0,259.949,216.468Z"/><path d="M262.382,217.933a1.878,1.878,0,0,1,.144-.752,1.64,1.64,0,0,1,.4-.569,2,2,0,0,1,.608-.379,3.5,3.5,0,0,1,.759-.21l1.7-.248a.564.564,0,0,0,.385-.17.488.488,0,0,0,.1-.3,1.1,1.1,0,0,0-.321-.791,1.393,1.393,0,0,0-1.04-.334,1.348,1.348,0,0,0-1.007.36,1.518,1.518,0,0,0-.419.909l-1.177-.275a2.167,2.167,0,0,1,.268-.824,2.215,2.215,0,0,1,.556-.647,2.581,2.581,0,0,1,.792-.419,3.025,3.025,0,0,1,.962-.151,3.37,3.37,0,0,1,1.2.191,2.258,2.258,0,0,1,.811.5,1.887,1.887,0,0,1,.458.733,2.673,2.673,0,0,1,.144.876v3.153a6.541,6.541,0,0,0,.026.668,3.25,3.25,0,0,0,.053.366h-1.2a2.458,2.458,0,0,1-.045-.314,5.312,5.312,0,0,1-.021-.536,2.4,2.4,0,0,1-.274.353,2.116,2.116,0,0,1-.419.34,2.284,2.284,0,0,1-.582.255,2.644,2.644,0,0,1-.752.1,2.288,2.288,0,0,1-.871-.158,2.137,2.137,0,0,1-.66-.412,1.806,1.806,0,0,1-.426-.595A1.763,1.763,0,0,1,262.382,217.933Zm2.276.851a2.535,2.535,0,0,0,.714-.1,1.494,1.494,0,0,0,.576-.314,1.515,1.515,0,0,0,.385-.576,2.344,2.344,0,0,0,.144-.87v-.288l-1.923.288a1.289,1.289,0,0,0-.654.294.818.818,0,0,0-.262.648.888.888,0,0,0,.275.635A.994.994,0,0,0,264.658,218.784Z"/><path d="M272.26,214.269a1.893,1.893,0,0,0-.719.138,1.77,1.77,0,0,0-.609.413,1.958,1.958,0,0,0-.425.687,2.7,2.7,0,0,0-.158.961,2.67,2.67,0,0,0,.158.949,2.084,2.084,0,0,0,.419.693,1.712,1.712,0,0,0,.615.425,1.9,1.9,0,0,0,.732.145,1.922,1.922,0,0,0,.752-.131,1.622,1.622,0,0,0,.832-.753,2.247,2.247,0,0,0,.169-.412l1.086.47a3.2,3.2,0,0,1-.34.687,2.7,2.7,0,0,1-.576.635,2.887,2.887,0,0,1-.83.465,3.156,3.156,0,0,1-1.093.177,3.119,3.119,0,0,1-1.275-.256,2.955,2.955,0,0,1-1-.707,3.365,3.365,0,0,1-.661-1.059,3.552,3.552,0,0,1-.242-1.328,3.635,3.635,0,0,1,.242-1.348,3.156,3.156,0,0,1,.667-1.053,3.069,3.069,0,0,1,1.008-.687,3.14,3.14,0,0,1,1.249-.249,3.2,3.2,0,0,1,1.106.177,2.779,2.779,0,0,1,.824.465,2.44,2.44,0,0,1,.556.648,3.29,3.29,0,0,1,.314.712l-1.112.472a2.594,2.594,0,0,0-.183-.472,1.533,1.533,0,0,0-.32-.425,1.709,1.709,0,0,0-.491-.314A1.749,1.749,0,0,0,272.26,214.269Z"/><path d="M279.509,215.984l2.734,3.637H280.7l-2.054-2.774-.876.876v1.9h-1.217v-9.472h1.217v5.966l2.72-2.787h1.7Z"/><path d="M283.146,210.946a.865.865,0,0,1,.254-.634.849.849,0,0,1,.622-.255.871.871,0,0,1,.89.889.846.846,0,0,1-.255.622.865.865,0,0,1-.635.256.871.871,0,0,1-.876-.878Zm.274,8.675v-6.293h1.217v6.293Z"/><path d="M287.96,219.621h-1.23v-6.293h1.2v.9a1.986,1.986,0,0,1,.864-.838,2.476,2.476,0,0,1,1.072-.248,2.409,2.409,0,0,1,.988.189,1.973,1.973,0,0,1,.707.523,2.192,2.192,0,0,1,.418.792,3.391,3.391,0,0,1,.138.981v3.991h-1.23V215.84a2.543,2.543,0,0,0-.073-.616,1.277,1.277,0,0,0-.248-.5,1.212,1.212,0,0,0-.458-.34,1.7,1.7,0,0,0-.686-.124,1.408,1.408,0,0,0-.641.137,1.308,1.308,0,0,0-.459.373,1.647,1.647,0,0,0-.275.549,2.38,2.38,0,0,0-.091.668Z"/><path d="M294.816,219.687a1.693,1.693,0,0,0,.53,1.1,1.659,1.659,0,0,0,1.184.439,1.883,1.883,0,0,0,1.459-.511,2.21,2.21,0,0,0,.464-1.53v-.9a1.864,1.864,0,0,1-.719.732,2.282,2.282,0,0,1-1.2.3,2.9,2.9,0,0,1-1.158-.229,2.761,2.761,0,0,1-1.518-1.59,3.411,3.411,0,0,1-.216-1.23,3.364,3.364,0,0,1,.21-1.2,2.941,2.941,0,0,1,.588-.968,2.783,2.783,0,0,1,2.094-.9,2.532,2.532,0,0,1,1.217.262,1.674,1.674,0,0,1,.72.732v-.876h1.217v5.822a4.41,4.41,0,0,1-.158,1.171,2.6,2.6,0,0,1-.53,1.008,2.7,2.7,0,0,1-.974.706,3.683,3.683,0,0,1-1.492.268,3.28,3.28,0,0,1-1.093-.177,2.927,2.927,0,0,1-.889-.49,2.6,2.6,0,0,1-.628-.74,2.343,2.343,0,0,1-.3-.934Zm1.9-1.4a1.666,1.666,0,0,0,1.3-.55,2.409,2.409,0,0,0,0-2.931,1.668,1.668,0,0,0-1.3-.549,1.7,1.7,0,0,0-1.321.549,2.429,2.429,0,0,0-.007,2.938A1.7,1.7,0,0,0,296.713,218.287Z"/><rect class="cls-4" x="23.282" y="2.315" width="137.937" height="43.248"/><path d="M37.884,14.594h1.36v1.112h-1.36v3.271a.945.945,0,0,0,.2.648.9.9,0,0,0,.681.216c.079,0,.166-.005.262-.014a1.011,1.011,0,0,0,.222-.039v1.047a2.846,2.846,0,0,1-.3.071,2.661,2.661,0,0,1-.536.046,1.75,1.75,0,0,1-1.283-.464,1.783,1.783,0,0,1-.47-1.328V15.706h-1.2V14.594h.339a.91.91,0,0,0,.739-.275,1.038,1.038,0,0,0,.229-.693V12.605h1.126Z"/><path d="M42.11,20.887H40.88V11.414h1.23v3.912a1.892,1.892,0,0,1,.85-.706,2.779,2.779,0,0,1,1.06-.21,2.415,2.415,0,0,1,.988.19,1.952,1.952,0,0,1,.706.524,2.18,2.18,0,0,1,.418.791,3.383,3.383,0,0,1,.138.982v3.99H45.04V17.106a2.529,2.529,0,0,0-.072-.615,1.243,1.243,0,0,0-.249-.5,1.214,1.214,0,0,0-.458-.34,1.706,1.706,0,0,0-.686-.124,1.406,1.406,0,0,0-.622.131,1.314,1.314,0,0,0-.45.352,1.6,1.6,0,0,0-.283.524,2.38,2.38,0,0,0-.11.654Z"/><path d="M47.958,12.213a.865.865,0,0,1,.255-.635.847.847,0,0,1,.622-.255.873.873,0,0,1,.89.89.838.838,0,0,1-.256.62.857.857,0,0,1-.634.256.872.872,0,0,1-.877-.876Zm.275,8.674V14.594H49.45v6.293Z"/><path d="M52.773,20.887h-1.23V14.594h1.2v.9a1.984,1.984,0,0,1,.863-.836,2.461,2.461,0,0,1,1.073-.25,2.415,2.415,0,0,1,.988.19,1.935,1.935,0,0,1,.706.524,2.181,2.181,0,0,1,.419.791,3.417,3.417,0,0,1,.137.982v3.99H55.7V17.106a2.53,2.53,0,0,0-.071-.615,1.269,1.269,0,0,0-.249-.5,1.222,1.222,0,0,0-.458-.34,1.708,1.708,0,0,0-.687-.124,1.424,1.424,0,0,0-.641.137,1.334,1.334,0,0,0-.458.373,1.6,1.6,0,0,0-.274.55,2.337,2.337,0,0,0-.092.667Z"/><path d="M59.629,20.952a1.7,1.7,0,0,0,.53,1.107,1.659,1.659,0,0,0,1.184.437,1.883,1.883,0,0,0,1.459-.51,2.214,2.214,0,0,0,.464-1.531v-.9a1.868,1.868,0,0,1-.719.734,2.291,2.291,0,0,1-1.2.3,2.88,2.88,0,0,1-1.158-.229,2.748,2.748,0,0,1-1.517-1.59,3.394,3.394,0,0,1-.216-1.229,3.358,3.358,0,0,1,.209-1.2,2.954,2.954,0,0,1,.589-.969,2.779,2.779,0,0,1,2.093-.9,2.552,2.552,0,0,1,1.216.261,1.668,1.668,0,0,1,.72.734v-.877H64.5v5.822a4.409,4.409,0,0,1-.156,1.171,2.61,2.61,0,0,1-.531,1.007,2.686,2.686,0,0,1-.975.707,3.651,3.651,0,0,1-1.491.268,3.3,3.3,0,0,1-1.092-.176,2.934,2.934,0,0,1-.89-.491,2.61,2.61,0,0,1-.628-.739,2.341,2.341,0,0,1-.294-.936Zm1.9-1.4A1.664,1.664,0,0,0,62.821,19a2.1,2.1,0,0,0,.5-1.465,2.106,2.106,0,0,0-.5-1.466,1.664,1.664,0,0,0-1.294-.549,1.7,1.7,0,0,0-1.322.549,2.1,2.1,0,0,0-.5,1.466,2.11,2.11,0,0,0,.49,1.471A1.7,1.7,0,0,0,61.527,19.552Z"/><path d="M66.982,18.859a1.354,1.354,0,0,0,.432.838,1.462,1.462,0,0,0,1.034.34,1.149,1.149,0,0,0,.8-.249.77.77,0,0,0,.275-.588.693.693,0,0,0-.21-.511,1.217,1.217,0,0,0-.6-.3l-1.073-.235a2.04,2.04,0,0,1-1.157-.628,1.669,1.669,0,0,1-.412-1.138,1.711,1.711,0,0,1,.176-.766,2.138,2.138,0,0,1,.477-.635,2.247,2.247,0,0,1,.714-.432,2.435,2.435,0,0,1,.87-.156,2.786,2.786,0,0,1,1.079.183,2.242,2.242,0,0,1,.713.451,1.985,1.985,0,0,1,.412.556,2.806,2.806,0,0,1,.19.5l-1.086.406a2.833,2.833,0,0,0-.091-.3,1.065,1.065,0,0,0-.21-.346,1.176,1.176,0,0,0-.393-.282,1.433,1.433,0,0,0-.614-.118,1.1,1.1,0,0,0-.759.256.76.76,0,0,0-.288.581q0,.6.72.759l1.02.223a2.34,2.34,0,0,1,1.3.674,1.79,1.79,0,0,1,.294,1.877,2.006,2.006,0,0,1-.425.628,2.064,2.064,0,0,1-.713.464,2.662,2.662,0,0,1-1.02.177,3.033,3.033,0,0,1-1.119-.183,2.547,2.547,0,0,1-.772-.458,2.046,2.046,0,0,1-.471-.595,1.9,1.9,0,0,1-.2-.6Z"/><path d="M75.774,20.887V11.611h1.309v9.276Z"/><path d="M88.059,19.094a2.749,2.749,0,0,1-.385.779,2.779,2.779,0,0,1-.616.628,2.988,2.988,0,0,1-.817.426,3.107,3.107,0,0,1-1.008.156,3.316,3.316,0,0,1-1.2-.222,2.943,2.943,0,0,1-1.014-.654,3.128,3.128,0,0,1-.694-1.061,3.756,3.756,0,0,1-.254-1.425,3.547,3.547,0,0,1,.248-1.355,3.4,3.4,0,0,1,.661-1.046,2.937,2.937,0,0,1,.962-.681,2.812,2.812,0,0,1,1.138-.241,3.286,3.286,0,0,1,1.288.241,2.606,2.606,0,0,1,.949.674,2.98,2.98,0,0,1,.582,1.041,4.191,4.191,0,0,1,.2,1.34c0,.079,0,.153-.007.223a1.228,1.228,0,0,1-.019.17H83.336a2.24,2.24,0,0,0,.158.772,1.815,1.815,0,0,0,.4.609,1.758,1.758,0,0,0,.6.392,2,2,0,0,0,.738.137,1.7,1.7,0,0,0,1.178-.366,2.115,2.115,0,0,0,.589-.9Zm-1.242-2a1.723,1.723,0,0,0-.458-1.145,1.648,1.648,0,0,0-1.269-.464,1.692,1.692,0,0,0-.7.137,1.634,1.634,0,0,0-.524.366,1.9,1.9,0,0,0-.346.517,1.589,1.589,0,0,0-.145.589Z"/><path d="M90.9,20.887h-1.23V14.594h1.2v.9a1.991,1.991,0,0,1,.864-.836,2.461,2.461,0,0,1,1.073-.25,2.415,2.415,0,0,1,.988.19,1.935,1.935,0,0,1,.706.524,2.181,2.181,0,0,1,.419.791,3.417,3.417,0,0,1,.137.982v3.99h-1.23V17.106a2.53,2.53,0,0,0-.071-.615,1.269,1.269,0,0,0-.249-.5,1.222,1.222,0,0,0-.458-.34,1.708,1.708,0,0,0-.687-.124,1.424,1.424,0,0,0-.641.137,1.334,1.334,0,0,0-.458.373,1.6,1.6,0,0,0-.274.55,2.337,2.337,0,0,0-.092.667Z"/><path d="M97.022,14.594h1.23V21.62a2.107,2.107,0,0,1-.458,1.406,1.584,1.584,0,0,1-1.282.543A2.786,2.786,0,0,1,96,23.536a1.534,1.534,0,0,1-.222-.058V22.444c.035.009.085.017.151.027a2.038,2.038,0,0,0,.242.012.8.8,0,0,0,.667-.241,1.1,1.1,0,0,0,.183-.674Zm-.274-2.408A.865.865,0,0,1,97,11.552a.849.849,0,0,1,.622-.255.871.871,0,0,1,.89.889.846.846,0,0,1-.255.622.864.864,0,0,1-.635.255.869.869,0,0,1-.876-.877Z"/><path d="M103.041,14.4a3.229,3.229,0,0,1,1.3.255,3.1,3.1,0,0,1,1.688,1.753,3.666,3.666,0,0,1,.235,1.328,3.724,3.724,0,0,1-.235,1.335,3.091,3.091,0,0,1-.668,1.059,3.139,3.139,0,0,1-1.02.7,3.416,3.416,0,0,1-2.59,0,3.132,3.132,0,0,1-1.021-.7,3.091,3.091,0,0,1-.668-1.059,3.724,3.724,0,0,1-.235-1.335,3.666,3.666,0,0,1,.235-1.328,3.093,3.093,0,0,1,1.689-1.753A3.222,3.222,0,0,1,103.041,14.4Zm0,5.586a1.981,1.981,0,0,0,.746-.143,1.8,1.8,0,0,0,.627-.433,2.035,2.035,0,0,0,.432-.706,2.741,2.741,0,0,0,.157-.968,2.687,2.687,0,0,0-.157-.962,2.055,2.055,0,0,0-.432-.7,1.827,1.827,0,0,0-.627-.432,2,2,0,0,0-1.492,0,1.831,1.831,0,0,0-.628.432,2.07,2.07,0,0,0-.432.7,2.687,2.687,0,0,0-.157.962,2.741,2.741,0,0,0,.157.968,2.05,2.05,0,0,0,.432.706,1.807,1.807,0,0,0,.628.433A1.973,1.973,0,0,0,103.041,19.984Z"/><path d="M107.79,23.517l1.57-3.324-2.708-5.6h1.413l1.962,4.344,1.884-4.344h1.321l-4.095,8.923Z"/><path d="M122.09,19.932a2.027,2.027,0,0,1-.712.791,2.151,2.151,0,0,1-1.237.334A2.9,2.9,0,0,1,118.9,20.8a2.736,2.736,0,0,1-.936-.707,3.215,3.215,0,0,1-.595-1.059,4.01,4.01,0,0,1-.209-1.315,3.675,3.675,0,0,1,.216-1.263,3.3,3.3,0,0,1,.608-1.047,2.964,2.964,0,0,1,.943-.72,2.759,2.759,0,0,1,1.216-.268,2.7,2.7,0,0,1,.74.092,2.077,2.077,0,0,1,.555.243,1.706,1.706,0,0,1,.393.339,1.48,1.48,0,0,1,.236.387v-4.07h1.217v8.308c0,.306.008.564.025.772s.031.341.04.393h-1.191a2.254,2.254,0,0,1-.046-.334c-.013-.152-.02-.325-.02-.516Zm-3.676-2.211a3.085,3.085,0,0,0,.124.9,2.156,2.156,0,0,0,.36.713,1.683,1.683,0,0,0,.576.471,1.738,1.738,0,0,0,.785.171,1.633,1.633,0,0,0,.759-.177,1.737,1.737,0,0,0,.575-.478,2.135,2.135,0,0,0,.36-.72,3.149,3.149,0,0,0,.124-.9,2.471,2.471,0,0,0-.477-1.582,1.6,1.6,0,0,0-1.328-.6,1.789,1.789,0,0,0-.766.164,1.691,1.691,0,0,0-.588.458,2.114,2.114,0,0,0-.374.7A2.891,2.891,0,0,0,118.414,17.721Z"/><path d="M128.07,14.4a3.233,3.233,0,0,1,1.3.255,3.16,3.16,0,0,1,1.02.7,3.111,3.111,0,0,1,.667,1.053,3.645,3.645,0,0,1,.236,1.328,3.7,3.7,0,0,1-.236,1.335,3.089,3.089,0,0,1-.667,1.059,3.16,3.16,0,0,1-1.02.7,3.418,3.418,0,0,1-2.591,0,3.132,3.132,0,0,1-1.021-.7,3.091,3.091,0,0,1-.668-1.059,3.724,3.724,0,0,1-.235-1.335,3.666,3.666,0,0,1,.235-1.328,3.093,3.093,0,0,1,1.689-1.753A3.222,3.222,0,0,1,128.07,14.4Zm0,5.586a1.977,1.977,0,0,0,.746-.143,1.794,1.794,0,0,0,.627-.433,2.037,2.037,0,0,0,.433-.706,2.764,2.764,0,0,0,.156-.968,2.71,2.71,0,0,0-.156-.962,2.057,2.057,0,0,0-.433-.7,1.818,1.818,0,0,0-.627-.432,2,2,0,0,0-1.492,0,1.831,1.831,0,0,0-.628.432,2.07,2.07,0,0,0-.432.7,2.71,2.71,0,0,0-.157.962,2.764,2.764,0,0,0,.157.968,2.05,2.05,0,0,0,.432.706,1.807,1.807,0,0,0,.628.433A1.977,1.977,0,0,0,128.07,19.984Z"/><path d="M132.583,12.213a.862.862,0,0,1,.256-.635.846.846,0,0,1,.622-.255.871.871,0,0,1,.889.89.841.841,0,0,1-.255.62.859.859,0,0,1-.634.256.874.874,0,0,1-.878-.876Zm.275,8.674V14.594h1.217v6.293Z"/><path d="M137.4,20.887h-1.23V14.594h1.2v.9a1.979,1.979,0,0,1,.863-.836,2.453,2.453,0,0,1,1.072-.25,2.409,2.409,0,0,1,.988.19,1.947,1.947,0,0,1,.707.524,2.181,2.181,0,0,1,.419.791,3.417,3.417,0,0,1,.137.982v3.99h-1.23V17.106a2.529,2.529,0,0,0-.072-.615,1.281,1.281,0,0,0-.248-.5,1.222,1.222,0,0,0-.458-.34,1.715,1.715,0,0,0-.687-.124,1.424,1.424,0,0,0-.641.137,1.328,1.328,0,0,0-.459.373,1.66,1.66,0,0,0-.274.55,2.373,2.373,0,0,0-.092.667Z"/><path d="M144.254,20.952a1.7,1.7,0,0,0,.53,1.107,1.662,1.662,0,0,0,1.184.437,1.882,1.882,0,0,0,1.459-.51,2.209,2.209,0,0,0,.464-1.531v-.9a1.866,1.866,0,0,1-.718.734,2.3,2.3,0,0,1-1.205.3,2.876,2.876,0,0,1-1.157-.229,2.745,2.745,0,0,1-1.518-1.59,3.568,3.568,0,0,1-.007-2.426,2.954,2.954,0,0,1,.589-.969,2.779,2.779,0,0,1,2.093-.9,2.553,2.553,0,0,1,1.217.261,1.673,1.673,0,0,1,.72.734v-.877h1.217v5.822a4.409,4.409,0,0,1-.157,1.171,2.583,2.583,0,0,1-.531,1.007,2.673,2.673,0,0,1-.974.707,3.66,3.66,0,0,1-1.492.268,3.3,3.3,0,0,1-1.092-.176,2.929,2.929,0,0,1-.889-.491,2.594,2.594,0,0,1-.628-.739,2.343,2.343,0,0,1-.3-.936Zm1.9-1.4a1.666,1.666,0,0,0,1.3-.549,2.1,2.1,0,0,0,.5-1.465,2.1,2.1,0,0,0-.5-1.466,1.666,1.666,0,0,0-1.3-.549,1.7,1.7,0,0,0-1.322.549,2.105,2.105,0,0,0-.5,1.466,2.11,2.11,0,0,0,.491,1.471A1.7,1.7,0,0,0,146.152,19.552Z"/><line class="cls-5" x1="29.439" y1="33.167" x2="155.326" y2="33.167"/><rect class="cls-4" x="186.766" y="2.315" width="128.081" height="43.248"/><path d="M201.075,14.594h1.361v1.112h-1.361v3.271a.94.94,0,0,0,.2.648.9.9,0,0,0,.681.216c.079,0,.166-.005.262-.014a1.011,1.011,0,0,0,.222-.039v1.047a2.873,2.873,0,0,1-.3.071,2.679,2.679,0,0,1-.537.046,1.742,1.742,0,0,1-1.282-.464,1.78,1.78,0,0,1-.471-1.328V15.706h-1.2V14.594h.34a.91.91,0,0,0,.739-.275,1.044,1.044,0,0,0,.23-.693V12.605h1.124Z"/><path d="M205.3,20.887h-1.23V11.414h1.23v3.912a1.9,1.9,0,0,1,.851-.706,2.778,2.778,0,0,1,1.059-.21,2.412,2.412,0,0,1,.988.19,1.935,1.935,0,0,1,.706.524,2.183,2.183,0,0,1,.42.791,3.418,3.418,0,0,1,.136.982v3.99h-1.229V17.106a2.529,2.529,0,0,0-.072-.615,1.269,1.269,0,0,0-.249-.5,1.222,1.222,0,0,0-.458-.34,1.706,1.706,0,0,0-.686-.124,1.406,1.406,0,0,0-.622.131,1.327,1.327,0,0,0-.451.352,1.6,1.6,0,0,0-.281.524,2.38,2.38,0,0,0-.112.654Z"/><path d="M211.15,12.213a.861.861,0,0,1,.255-.635.847.847,0,0,1,.622-.255.87.87,0,0,1,.889.89.844.844,0,0,1-.254.62.861.861,0,0,1-.635.256.872.872,0,0,1-.877-.876Zm.275,8.674V14.594h1.217v6.293Z"/><path d="M215.965,20.887h-1.23V14.594h1.2v.9a1.979,1.979,0,0,1,.863-.836,2.461,2.461,0,0,1,1.073-.25,2.412,2.412,0,0,1,.988.19,1.955,1.955,0,0,1,.707.524,2.178,2.178,0,0,1,.417.791,3.383,3.383,0,0,1,.139.982v3.99H218.9V17.106a2.53,2.53,0,0,0-.071-.615,1.281,1.281,0,0,0-.248-.5,1.238,1.238,0,0,0-.458-.34,1.723,1.723,0,0,0-.688-.124,1.424,1.424,0,0,0-.641.137,1.324,1.324,0,0,0-.458.373,1.661,1.661,0,0,0-.275.55,2.373,2.373,0,0,0-.091.667Z"/><path d="M222.821,20.952a1.7,1.7,0,0,0,.53,1.107,1.66,1.66,0,0,0,1.184.437,1.883,1.883,0,0,0,1.459-.51,2.209,2.209,0,0,0,.464-1.531v-.9a1.875,1.875,0,0,1-.719.734,2.288,2.288,0,0,1-1.2.3,2.876,2.876,0,0,1-1.157-.229,2.794,2.794,0,0,1-.917-.628,2.822,2.822,0,0,1-.6-.962,3.394,3.394,0,0,1-.216-1.229,3.337,3.337,0,0,1,.21-1.2,2.921,2.921,0,0,1,.589-.969,2.779,2.779,0,0,1,2.093-.9,2.559,2.559,0,0,1,1.217.261,1.683,1.683,0,0,1,.72.734v-.877h1.216v5.822a4.369,4.369,0,0,1-.157,1.171,2.608,2.608,0,0,1-.53,1.007,2.69,2.69,0,0,1-.974.707,3.666,3.666,0,0,1-1.492.268,3.291,3.291,0,0,1-1.092-.176,2.922,2.922,0,0,1-.89-.491,2.626,2.626,0,0,1-.628-.739,2.343,2.343,0,0,1-.3-.936Zm1.9-1.4a1.67,1.67,0,0,0,1.3-.549,2.107,2.107,0,0,0,.5-1.465,2.109,2.109,0,0,0-.5-1.466,1.67,1.67,0,0,0-1.3-.549,1.7,1.7,0,0,0-1.321.549,2.1,2.1,0,0,0-.5,1.466,2.105,2.105,0,0,0,.49,1.471A1.7,1.7,0,0,0,224.718,19.552Z"/><path d="M230.174,18.859a1.353,1.353,0,0,0,.431.838,1.466,1.466,0,0,0,1.035.34,1.153,1.153,0,0,0,.8-.249.769.769,0,0,0,.274-.588.693.693,0,0,0-.209-.511,1.222,1.222,0,0,0-.6-.3l-1.072-.235a2.043,2.043,0,0,1-1.159-.628,1.673,1.673,0,0,1-.412-1.138,1.712,1.712,0,0,1,.177-.766,2.125,2.125,0,0,1,.478-.635,2.237,2.237,0,0,1,.712-.432,2.443,2.443,0,0,1,.87-.156,2.788,2.788,0,0,1,1.08.183,2.242,2.242,0,0,1,.713.451,1.942,1.942,0,0,1,.411.556,2.743,2.743,0,0,1,.191.5l-1.086.406a2.652,2.652,0,0,0-.092-.3,1.061,1.061,0,0,0-.209-.346,1.181,1.181,0,0,0-.392-.282,1.443,1.443,0,0,0-.616-.118,1.1,1.1,0,0,0-.758.256.756.756,0,0,0-.288.581q0,.6.719.759l1.022.223a2.337,2.337,0,0,1,1.3.674,1.79,1.79,0,0,1,.294,1.877,2.006,2.006,0,0,1-.425.628,2.074,2.074,0,0,1-.713.464,2.664,2.664,0,0,1-1.021.177,3.04,3.04,0,0,1-1.119-.183,2.553,2.553,0,0,1-.771-.458,2.046,2.046,0,0,1-.471-.595,1.931,1.931,0,0,1-.2-.6Z"/><path d="M238.966,20.887V11.611h1.308v9.276Z"/><path d="M241.975,12.3a.759.759,0,0,1,.255-.569.889.889,0,0,1,.635-.242.978.978,0,0,1,.694.287,1.148,1.148,0,0,1,.3.864,2.782,2.782,0,0,1-.176,1.047,2.332,2.332,0,0,1-.446.719,1.849,1.849,0,0,1-.581.433,2.184,2.184,0,0,1-.6.183V14.4a1.205,1.205,0,0,0,.72-.491,1.488,1.488,0,0,0,.288-.831.216.216,0,0,1-.092.046.6.6,0,0,1-.17.019.829.829,0,0,1-.582-.222A.794.794,0,0,1,241.975,12.3Z"/><path d="M244.906,20.887V14.594h1.178v.837a1.845,1.845,0,0,1,.83-.771,2.5,2.5,0,0,1,1.08-.25,2.228,2.228,0,0,1,1.106.289,1.792,1.792,0,0,1,.777.9,2.1,2.1,0,0,1,.943-.935,2.794,2.794,0,0,1,1.164-.256,2.3,2.3,0,0,1,.8.144,2.028,2.028,0,0,1,.7.439,2.115,2.115,0,0,1,.489.745,2.813,2.813,0,0,1,.184,1.067v4.082H252.94V16.936a1.619,1.619,0,0,0-.321-1.027A1.207,1.207,0,0,0,251.6,15.5a1.337,1.337,0,0,0-1.052.452,1.647,1.647,0,0,0-.4,1.132v3.807h-1.229V16.936a1.64,1.64,0,0,0-.315-1.027,1.2,1.2,0,0,0-1.02-.413,1.359,1.359,0,0,0-1.067.446,1.657,1.657,0,0,0-.4,1.151v3.794Z"/><path d="M260.122,20.952a1.692,1.692,0,0,0,.531,1.107,1.657,1.657,0,0,0,1.184.437,1.882,1.882,0,0,0,1.458-.51,2.214,2.214,0,0,0,.465-1.531v-.9a1.878,1.878,0,0,1-.72.734,2.29,2.29,0,0,1-1.2.3,2.885,2.885,0,0,1-1.159-.229,2.8,2.8,0,0,1-.915-.628,2.824,2.824,0,0,1-.6-.962,3.416,3.416,0,0,1-.215-1.229,3.358,3.358,0,0,1,.209-1.2,2.954,2.954,0,0,1,.589-.969,2.783,2.783,0,0,1,2.094-.9,2.557,2.557,0,0,1,1.216.261,1.676,1.676,0,0,1,.719.734v-.877h1.217v5.822a4.409,4.409,0,0,1-.156,1.171,2.608,2.608,0,0,1-.53,1.007,2.69,2.69,0,0,1-.976.707,3.653,3.653,0,0,1-1.49.268,3.3,3.3,0,0,1-1.093-.176,2.934,2.934,0,0,1-.89-.491,2.626,2.626,0,0,1-.628-.739,2.326,2.326,0,0,1-.294-.936Zm1.9-1.4a1.669,1.669,0,0,0,1.3-.549,2.1,2.1,0,0,0,.5-1.465,2.105,2.105,0,0,0-.5-1.466,1.669,1.669,0,0,0-1.3-.549,1.7,1.7,0,0,0-1.323.549,2.1,2.1,0,0,0-.5,1.466,2.11,2.11,0,0,0,.49,1.471A1.7,1.7,0,0,0,262.02,19.552Z"/><path d="M269.648,14.4a3.229,3.229,0,0,1,1.295.255,3.16,3.16,0,0,1,1.02.7,3.1,3.1,0,0,1,.667,1.053,3.645,3.645,0,0,1,.236,1.328,3.7,3.7,0,0,1-.236,1.335,3.074,3.074,0,0,1-.667,1.059,3.16,3.16,0,0,1-1.02.7,3.418,3.418,0,0,1-2.591,0,3.132,3.132,0,0,1-1.021-.7,3.074,3.074,0,0,1-.667-1.059,3.7,3.7,0,0,1-.236-1.335,3.645,3.645,0,0,1,.236-1.328,3.1,3.1,0,0,1,.667-1.053,3.132,3.132,0,0,1,1.021-.7A3.226,3.226,0,0,1,269.648,14.4Zm0,5.586a1.975,1.975,0,0,0,.745-.143,1.807,1.807,0,0,0,.628-.433,2.05,2.05,0,0,0,.432-.706,2.742,2.742,0,0,0,.156-.968,2.688,2.688,0,0,0-.156-.962,2.07,2.07,0,0,0-.432-.7,1.831,1.831,0,0,0-.628-.432,2,2,0,0,0-1.492,0,1.831,1.831,0,0,0-.628.432,2.053,2.053,0,0,0-.431.7,2.709,2.709,0,0,0-.158.962,2.763,2.763,0,0,0,.158.968,2.033,2.033,0,0,0,.431.706,1.807,1.807,0,0,0,.628.433A1.982,1.982,0,0,0,269.648,19.984Z"/><path d="M277.131,14.4a3.222,3.222,0,0,1,1.3.255,3.154,3.154,0,0,1,1.021.7,3.111,3.111,0,0,1,.667,1.053,3.645,3.645,0,0,1,.235,1.328,3.7,3.7,0,0,1-.235,1.335,3.089,3.089,0,0,1-.667,1.059,3.154,3.154,0,0,1-1.021.7,3.416,3.416,0,0,1-2.59,0,3.132,3.132,0,0,1-1.021-.7,3.091,3.091,0,0,1-.668-1.059,3.7,3.7,0,0,1-.235-1.335,3.645,3.645,0,0,1,.235-1.328,3.093,3.093,0,0,1,1.689-1.753A3.222,3.222,0,0,1,277.131,14.4Zm0,5.586a1.968,1.968,0,0,0,.745-.143,1.789,1.789,0,0,0,.628-.433,2.037,2.037,0,0,0,.433-.706,2.764,2.764,0,0,0,.156-.968,2.71,2.71,0,0,0-.156-.962,2.057,2.057,0,0,0-.433-.7,1.813,1.813,0,0,0-.628-.432,2,2,0,0,0-1.49,0,1.826,1.826,0,0,0-.629.432,2.055,2.055,0,0,0-.432.7,2.71,2.71,0,0,0-.157.962,2.764,2.764,0,0,0,.157.968,2.035,2.035,0,0,0,.432.706,1.8,1.8,0,0,0,.629.433A1.964,1.964,0,0,0,277.131,19.984Z"/><path d="M286.328,19.932a2.03,2.03,0,0,1-.713.791,2.146,2.146,0,0,1-1.236.334,2.9,2.9,0,0,1-1.243-.255,2.736,2.736,0,0,1-.936-.707,3.251,3.251,0,0,1-.595-1.059,4.037,4.037,0,0,1-.209-1.315,3.7,3.7,0,0,1,.215-1.263,3.342,3.342,0,0,1,.609-1.047,2.96,2.96,0,0,1,.942-.72,2.764,2.764,0,0,1,1.217-.268,2.708,2.708,0,0,1,.74.092,2.1,2.1,0,0,1,.556.243,1.694,1.694,0,0,1,.391.339,1.485,1.485,0,0,1,.237.387v-4.07h1.216v8.308c0,.306.008.564.026.772s.031.341.04.393h-1.191a2.365,2.365,0,0,1-.047-.334c-.012-.152-.019-.325-.019-.516Zm-3.676-2.211a3.085,3.085,0,0,0,.124.9,2.156,2.156,0,0,0,.36.713,1.689,1.689,0,0,0,.575.471,1.745,1.745,0,0,0,.786.171,1.626,1.626,0,0,0,.758-.177,1.721,1.721,0,0,0,.576-.478,2.135,2.135,0,0,0,.36-.72,3.148,3.148,0,0,0,.125-.9,2.477,2.477,0,0,0-.477-1.582,1.6,1.6,0,0,0-1.329-.6,1.789,1.789,0,0,0-.766.164,1.7,1.7,0,0,0-.589.458,2.11,2.11,0,0,0-.372.7A2.861,2.861,0,0,0,282.652,17.721Z"/><path d="M292.491,19.2a1.883,1.883,0,0,1,.144-.753,1.653,1.653,0,0,1,.4-.569,2.016,2.016,0,0,1,.608-.38,3.43,3.43,0,0,1,.759-.208l1.7-.25a.558.558,0,0,0,.385-.17.48.48,0,0,0,.1-.3,1.1,1.1,0,0,0-.32-.792,1.392,1.392,0,0,0-1.041-.334,1.352,1.352,0,0,0-1.007.36,1.512,1.512,0,0,0-.419.909l-1.177-.274a2.184,2.184,0,0,1,.267-.824,2.216,2.216,0,0,1,.557-.649,2.606,2.606,0,0,1,.791-.418,3.04,3.04,0,0,1,.963-.15,3.372,3.372,0,0,1,1.2.189,2.279,2.279,0,0,1,.811.5,1.9,1.9,0,0,1,.458.732,2.685,2.685,0,0,1,.144.878v3.152a6.507,6.507,0,0,0,.027.668,3.342,3.342,0,0,0,.052.366h-1.2a2.88,2.88,0,0,1-.045-.314c-.014-.131-.02-.31-.02-.536a2.364,2.364,0,0,1-.275.353,2.082,2.082,0,0,1-.419.34,2.3,2.3,0,0,1-.582.255,2.684,2.684,0,0,1-.753.1,2.306,2.306,0,0,1-.87-.156,2.212,2.212,0,0,1-.661-.412,1.811,1.811,0,0,1-.425-.6A1.754,1.754,0,0,1,292.491,19.2Zm2.277.849a2.5,2.5,0,0,0,.713-.1,1.418,1.418,0,0,0,.961-.889,2.346,2.346,0,0,0,.144-.871V17.9l-1.923.287a1.3,1.3,0,0,0-.653.3.815.815,0,0,0-.262.648.885.885,0,0,0,.274.634A.993.993,0,0,0,294.768,20.049Z"/><path d="M301.376,14.594h1.36v1.112h-1.36v3.271a.935.935,0,0,0,.2.648.892.892,0,0,0,.68.216c.079,0,.166-.005.262-.014a1.034,1.034,0,0,0,.223-.039v1.047a2.952,2.952,0,0,1-.3.071,2.648,2.648,0,0,1-.536.046,1.748,1.748,0,0,1-1.283-.464,1.787,1.787,0,0,1-.47-1.328V15.706h-1.2V14.594h.34a.913.913,0,0,0,.74-.275,1.048,1.048,0,0,0,.228-.693V12.605h1.127Z"/><line class="cls-5" x1="192.774" y1="33.167" x2="308.871" y2="33.167"/></svg>