<?xml version="1.0" encoding="UTF-8" standalone="no"?>
<!-- Created with Inkscape (http://www.inkscape.org/) -->

<svg
   xmlns:osb="http://www.openswatchbook.org/uri/2009/osb"
   xmlns:dc="http://purl.org/dc/elements/1.1/"
   xmlns:cc="http://creativecommons.org/ns#"
   xmlns:rdf="http://www.w3.org/1999/02/22-rdf-syntax-ns#"
   xmlns:svg="http://www.w3.org/2000/svg"
   xmlns="http://www.w3.org/2000/svg"
   xmlns:xlink="http://www.w3.org/1999/xlink"
   xmlns:sodipodi="http://sodipodi.sourceforge.net/DTD/sodipodi-0.dtd"
   xmlns:inkscape="http://www.inkscape.org/namespaces/inkscape"
   width="571.22723"
   height="461.41501"
   id="svg2"
   version="1.1"
   inkscape:version="0.48.4 r9939"
   sodipodi:docname="projects.svg">
  <defs
     id="defs4">
    <linearGradient
       id="linearGradient3769"
       osb:paint="solid">
      <stop
         style="stop-color:#000000;stop-opacity:1;"
         offset="0"
         id="stop3771" />
    </linearGradient>
    <linearGradient
       id="linearGradient3761"
       osb:paint="solid">
      <stop
         style="stop-color:#000000;stop-opacity:1;"
         offset="0"
         id="stop3763" />
    </linearGradient>
    <linearGradient
       inkscape:collect="always"
       xlink:href="#linearGradient3761"
       id="linearGradient3765"
       x1="163.14471"
       y1="485.66476"
       x2="519.35455"
       y2="489.88486"
       gradientUnits="userSpaceOnUse" />
    <linearGradient
       inkscape:collect="always"
       xlink:href="#linearGradient3761"
       id="linearGradient3812"
       gradientUnits="userSpaceOnUse"
       x1="163.14471"
       y1="485.66476"
       x2="519.35455"
       y2="489.88486" />
    <linearGradient
       inkscape:collect="always"
       xlink:href="#linearGradient3761"
       id="linearGradient3817"
       gradientUnits="userSpaceOnUse"
       x1="163.14471"
       y1="485.66476"
       x2="519.35455"
       y2="489.88486"
       gradientTransform="matrix(0.8660254,-0.5,0.5,0.8660254,-197.44461,230.90634)" />
  </defs>
  <sodipodi:namedview
     id="base"
     pagecolor="#ffffff"
     bordercolor="#666666"
     borderopacity="1.0"
     inkscape:pageopacity="0.0"
     inkscape:pageshadow="2"
     inkscape:zoom="1.4"
     inkscape:cx="314.38386"
     inkscape:cy="-47.124213"
     inkscape:document-units="px"
     inkscape:current-layer="layer1"
     showgrid="false"
     fit-margin-top="0"
     fit-margin-left="0"
     fit-margin-right="0"
     fit-margin-bottom="0"
     inkscape:window-width="1454"
     inkscape:window-height="1899"
     inkscape:window-x="0"
     inkscape:window-y="0"
     inkscape:window-maximized="0" />
  <metadata
     id="metadata7">
    <rdf:RDF>
      <cc:Work
         rdf:about="">
        <dc:format>image/svg+xml</dc:format>
        <dc:type
           rdf:resource="http://purl.org/dc/dcmitype/StillImage" />
        <dc:title></dc:title>
      </cc:Work>
    </rdf:RDF>
  </metadata>
  <g
     inkscape:label="Layer 1"
     inkscape:groupmode="layer"
     id="layer1"
     transform="translate(-46.58623,-251.86793)">
    <path
       id="path3795"
       style="fill:#999999;fill-opacity:1;stroke:url(#linearGradient3817);stroke-width:15;stroke-linecap:butt;stroke-linejoin:miter;stroke-miterlimit:4;stroke-opacity:1;stroke-dasharray:none"
       d="M 205.70503,525.12098 441.90582,388.75039 c 0,0 26.34361,-21.0416 44.02129,9.57702 17.17259,29.74379 -9.47795,38.13196 -9.47795,38.13196 L 231.50019,577.88072 c 0,0 -28.59832,21.17694 -44.39102,-8.19711 -19.79704,-28.22859 18.59586,-44.56263 18.59586,-44.56263 z"
       inkscape:connector-curvature="0"
       sodipodi:nodetypes="ccccccc" />
    <path
       style="fill:#999999;fill-opacity:1;stroke:#000000;stroke-width:15;stroke-linecap:butt;stroke-linejoin:miter;stroke-miterlimit:4;stroke-opacity:1;stroke-dasharray:none"
       d="m 334.221,410.64998 c 0,0 -17.45048,-74.98872 74.13223,-128.50175 110.82108,-64.75428 165.74915,24.44632 183.05708,56.44484 16.39685,24.35956 47.41546,137.36752 -40.93215,186.5947 -72.76026,33.74452 -147.33237,-4.42664 -147.33237,-4.42664 l 46.8939,-26.55984 c 0,0 24.58019,9.80034 72.32543,-16.59895 42.49632,-23.36884 49.44888,-65.8749 23.41933,-115.00002 -29.29443,-50.73944 -58.89525,-63.70037 -109.18323,-39.60832 -57.73796,33.33503 -49.74474,56.11926 -49.74474,56.11926 z"
       id="path3767"
       inkscape:connector-curvature="0"
       sodipodi:nodetypes="csccccccccc" />
    <path
       style="fill:#999999;fill-opacity:1;stroke:#000000;stroke-width:15;stroke-linecap:butt;stroke-linejoin:miter;stroke-miterlimit:4;stroke-opacity:1;stroke-dasharray:none"
       d="m 262.43488,455.2641 c 0,0 -49.41712,-57.90943 -141.57804,-5.39848 -101.866396,58.0409 -61.838776,153.51144 -43.01562,188.13441 24.24366,41.99125 98.38167,98.20427 184.98864,48.20172 95.2585,-58.84327 62.23448,-123.72164 62.23448,-123.72164 l -43.97529,27.13879 c 0,0 -1.23486,28.56203 -47.96993,56.71097 -46.63601,22.25962 -90.82889,2.28387 -111.30261,-37.21826 -29.29443,-50.73945 -11.99209,-95.44563 20.2898,-114.35962 57.73797,-33.33503 72.68241,-13.72901 72.68241,-13.72901 z"
       id="path3767-1"
       inkscape:connector-curvature="0"
       sodipodi:nodetypes="csccccccccc" />
  </g>
</svg>
